SplineFontDB: 3.0
FontName: Jinko-Black
FullName: Jinko Black
FamilyName: Jinko Black
Weight: Black
Copyright: Copyright (c) 2012, vernon adams (vern@newtypography.co.uk), with Reserved Font Name 'Jinko'
Version: 0.000;PS (version unavailable);hotconv 1.0.57;makeotf.lib2.0.21895 DEVELOPMENT
ItalicAngle: 0
UnderlinePosition: 0
UnderlineWidth: 0
Ascent: 1638
Descent: 410
UFOAscent: 1638
UFODescent: -410
LayerCount: 2
Layer: 0 0 "Back"  1
Layer: 1 0 "Fore"  0
OS2Version: 0
OS2_WeightWidthSlopeOnly: 0
OS2_UseTypoMetrics: 0
CreationTime: 1348729751
ModificationTime: 1348783008
PfmFamily: 0
TTFWeight: 900
TTFWidth: 5
LineGap: 0
VLineGap: 0
OS2TypoAscent: 0
OS2TypoAOffset: 1
OS2TypoDescent: 0
OS2TypoDOffset: 1
OS2TypoLinegap: 0
OS2WinAscent: 2064
OS2WinAOffset: 0
OS2WinDescent: 631
OS2WinDOffset: 0
HheadAscent: 2064
HheadAOffset: 0
HheadDescent: -631
HheadDOffset: 0
OS2Vendor: 'newt'
MarkAttachClasses: 1
DEI: 91125
LangName: 1033 "" "" "" "0.000;NONE;Jinko-Black" "" "Version 0.000;PS (version unavailable);hotconv 1.0.57;makeotf.lib2.0.21895 DEVELOPMENT" "" "Jinko is a trademark of vernon adams." "Vernon Adams" "Vernon Adams" "Copyright (c) 2012 by vernon adams. All rights reserved." "newtypography.co.uk" "newtypography.co.uk" "Copyright (c) 2012, vernon adams (vern@newtypography.co.uk), with Reserved Font Name Jinko." "http://scripts.sil.org/OFL" "" "" "" "Jinko Black" 
PickledData: "(dp1
S'com.typemytype.robofont.compileSettings.autohint'
p2
I1
sS'com.typemytype.robofont.compileSettings.decompose'
p3
I0
sS'public.glyphOrder'
p4
(S'space'
p5
S'exclam'
p6
S'quotedbl'
p7
S'numbersign'
p8
S'dollar'
p9
S'percent'
p10
S'ampersand'
p11
S'parenleft'
p12
S'parenright'
p13
S'asterisk'
p14
S'plus'
p15
S'comma'
p16
S'hyphen'
p17
S'period'
p18
S'slash'
p19
S'zero'
p20
S'one'
p21
S'two'
p22
S'three'
p23
S'four'
p24
S'five'
p25
S'six'
p26
S'seven'
p27
S'eight'
p28
S'nine'
p29
S'colon'
p30
S'semicolon'
p31
S'less'
p32
S'equal'
p33
S'greater'
p34
S'question'
p35
S'at'
p36
S'A'
S'B'
S'C'

StartChar: A
Encoding: 33 65 0
Width: 1544
VWidth: 0
Flags: HW
PickledData: "(dp1
S'com.typemytype.robofont.layerData'
p2
(dp3
s."
LayerCount: 2
Fore
SplineSet
608 549 m 1
 927 549 l 1
 771 1104 l 1
 608 549 l 1
22 0 m 5
 546 1481 l 1
 1009 1481 l 1
 1522 0 l 1
 1096 0 l 1
 1014 247 l 1
 519 247 l 1
 440 0 l 1
 22 0 l 5
EndSplineSet
EndChar

StartChar: AE
Encoding: 130 198 1
Width: 1941
VWidth: 0
Flags: HW
LayerCount: 2
Fore
SplineSet
-77 0 m 1
 425 1352 l 1
 1868 1352 l 1
 1868 1037 l 1
 1221 1037 l 1
 1221 877 l 1
 1785 877 l 1
 1785 569 l 1
 1221 569 l 1
 1221 317 l 1
 1865 317 l 1
 1865 0 l 1
 796 0 l 1
 796 310 l 1
 462 310 l 1
 361 0 l 1
 -77 0 l 1
579 617 m 1
 796 617 l 1
 796 1058 l 1
 722 1058 l 1
 579 617 l 1
EndSplineSet
EndChar

StartChar: B
Encoding: 34 66 11
Width: 1519
VWidth: 0
Flags: HW
PickledData: "(dp1
S'com.typemytype.robofont.layerData'
p2
(dp3
s."
LayerCount: 2
Fore
SplineSet
1103 773 m 1
 1282 741 1437 615 1437 419 c 0
 1437 119 1170 0 841 0 c 2
 155 0 l 1
 155 1481 l 1
 608 1481 l 2
 1064 1481 1337 1411 1337 1087 c 1
 1338 947 1255 841 1103 781 c 1
 1103 773 l 1
586 295 m 1
 794 295 l 2
 862 295 1010 319 1010 445 c 0
 1010 599 884 623 715 623 c 2
 586 623 l 1
 586 295 l 1
586 878 m 1
 821 878 942 898 942 1037 c 4
 942 1172 813 1186 586 1186 c 5
 586 878 l 1
EndSplineSet
EndChar

StartChar: C
Encoding: 35 67 12
Width: 1493
VWidth: 0
Flags: HW
PickledData: "(dp1
S'com.typemytype.robofont.layerData'
p2
(dp3
s."
LayerCount: 2
Fore
SplineSet
893 -24 m 0
 376 -24 110 251 110 738 c 0
 110 1226 430 1505 893 1505 c 0
 1083 1505 1229 1468 1388 1398 c 1
 1297 1051 l 1
 1297 1051 1143 1170 949 1170 c 0
 681 1170 537 966 537 734 c 0
 537 479 678 311 955 311 c 0
 1128 311 1309 424 1309 424 c 1
 1388 94 l 1
 1211 3 1086 -24 893 -24 c 0
EndSplineSet
EndChar

StartChar: D
Encoding: 36 68 18
Width: 1581
VWidth: 0
Flags: HW
PickledData: "(dp1
S'com.typemytype.robofont.layerData'
p2
(dp3
s."
LayerCount: 2
Fore
SplineSet
586 326 m 1
 670 326 l 2
 917 326 1046 427 1046 735 c 0
 1046 1021 930 1155 749 1155 c 2
 586 1155 l 1
 586 326 l 1
155 0 m 1
 155 1481 l 1
 617 1481 l 2
 1159 1481 1473 1306 1473 737 c 0
 1473 164 1129 0 597 0 c 2
 155 0 l 1
EndSplineSet
EndChar

StartChar: Dcroat
Encoding: 377 272 20
Width: 1551
VWidth: 0
Flags: HW
LayerCount: 2
Fore
SplineSet
676 1645 m 1
 363 1987 l 1
 624 1987 l 1
 792 1803 l 1
 957 1987 l 1
 1215 1987 l 1
 902 1645 l 1
 676 1645 l 1
607 326 m 1
 669 326 l 2
 916 326 1027 427 1027 735 c 0
 1027 1021 938 1155 757 1155 c 2
 607 1155 l 1
 607 326 l 1
146 0 m 1
 146 1481 l 1
 638 1481 l 2
 1180 1481 1502 1306 1502 737 c 0
 1502 164 1160 0 628 0 c 2
 146 0 l 1
EndSplineSet
EndChar

StartChar: E
Encoding: 37 69 21
Width: 1363
VWidth: 0
Flags: HW
PickledData: "(dp1
S'com.typemytype.robofont.layerData'
p2
(dp3
s."
LayerCount: 2
Fore
SplineSet
155 0 m 1
 155 1481 l 1
 1254 1481 l 1
 1254 1155 l 1
 586 1155 l 1
 586 928 l 1
 1165 928 l 1
 1165 606 l 1
 586 606 l 1
 586 326 l 1
 1252 326 l 1
 1252 0 l 1
 155 0 l 1
EndSplineSet
EndChar

StartChar: Eth
Encoding: 140 208 29
Width: 1220
VWidth: 0
Flags: HW
LayerCount: 2
Fore
SplineSet
43 653 m 1
 43 855 l 1
 146 855 l 1
 146 1481 l 1
 638 1481 l 2
 1180 1481 1502 1306 1502 737 c 0
 1502 164 1160 0 628 0 c 2
 146 0 l 1
 146 653 l 1
 43 653 l 1
607 326 m 1
 669 326 l 2
 916 326 1027 427 1027 735 c 0
 1027 1021 938 1155 757 1155 c 2
 607 1155 l 1
 607 855 l 1
 708 855 l 1
 708 653 l 1
 607 653 l 1
 607 326 l 1
EndSplineSet
EndChar

StartChar: Euro
Encoding: 370 8364 30
Width: 1180
VWidth: 0
Flags: HW
LayerCount: 2
Fore
SplineSet
753 -25 m 0
 413 -25 181 192 99 509 c 1
 -54 509 l 1
 -6 658 l 1
 59 658 l 1
 59 710 l 2
 59 731 59 750 63 819 c 1
 -45 819 l 1
 0 968 l 1
 92 968 l 1
 168 1258 381 1505 733 1505 c 0
 877 1505 1021 1465 1146 1437 c 1
 1146 1083 l 1
 1013 1083 l 1
 992 1156 938 1213 842 1213 c 0
 672 1213 601 1082 552 968 c 1
 1031 968 l 1
 1001 819 l 1
 520 819 l 1
 512 787 510 752 510 723 c 0
 510 685 514 658 514 658 c 1
 953 658 l 1
 921 509 l 1
 543 509 l 1
 606 312 738 273 831 273 c 0
 941 273 992 332 1049 396 c 1
 1146 396 l 1
 1146 41 l 1
 1100 24 974 -25 753 -25 c 0
EndSplineSet
EndChar

StartChar: F
Encoding: 38 70 31
Width: 1308
VWidth: 0
Flags: HW
PickledData: "(dp1
S'com.typemytype.robofont.layerData'
p2
(dp3
s."
LayerCount: 2
Fore
SplineSet
155 0 m 1
 155 1481 l 1
 1247 1481 l 1
 1247 1155 l 1
 586 1155 l 1
 586 900 l 1
 1185 900 l 1
 1185 577 l 1
 586 577 l 1
 586 0 l 1
 155 0 l 1
EndSplineSet
EndChar

StartChar: G
Encoding: 39 71 32
Width: 1628
VWidth: 0
Flags: HW
PickledData: "(dp1
S'com.typemytype.robofont.layerData'
p2
(dp3
s."
LayerCount: 2
Fore
SplineSet
877 -24 m 0
 388 -24 110 268 110 740 c 0
 110 1235 398 1505 891 1505 c 0
 1189 1505 1268 1470 1467 1353 c 1
 1381 1022 l 2
 1381 1025 1190 1170 981 1170 c 0
 692 1170 537 1000 537 746 c 0
 537 362.771132659 774.918322611 299.470689 958.191419155 299.470689 c 0
 1035.50806179 299.470689 1107.09960938 315.736328125 1139 329 c 1
 1139 552 l 1
 815 552 l 1
 815 832 l 1
 1464 832 l 1
 1464 129 l 5
 1382 42 1104 -24 877 -24 c 0
EndSplineSet
EndChar

StartChar: H
Encoding: 40 72 37
Width: 1633
VWidth: 0
Flags: HW
PickledData: "(dp1
S'com.typemytype.robofont.layerData'
p2
(dp3
s."
LayerCount: 2
Fore
SplineSet
155 0 m 1
 155 1481 l 1
 586 1481 l 1
 586 941 l 1
 1047 941 l 1
 1047 1481 l 1
 1478 1481 l 1
 1478 0 l 1
 1047 0 l 1
 1047 617 l 1
 586 617 l 1
 586 0 l 1
 155 0 l 1
EndSplineSet
EndChar

StartChar: Hbar
Encoding: 220 294 38
Width: 1615
VWidth: 0
Flags: HW
LayerCount: 2
Fore
SplineSet
374 1647 m 1
 664 1992 l 1
 940 1992 l 1
 1231 1647 l 1
 933 1647 l 1
 802 1811 l 1
 662 1647 l 1
 374 1647 l 1
146 0 m 1
 146 1481 l 1
 607 1481 l 1
 607 941 l 1
 1008 941 l 1
 1008 1481 l 1
 1469 1481 l 1
 1469 0 l 1
 1008 0 l 1
 1008 617 l 1
 607 617 l 1
 607 0 l 1
 146 0 l 1
EndSplineSet
EndChar

StartChar: I
Encoding: 41 73 40
Width: 1138
VWidth: 0
Flags: HW
PickledData: "(dp1
S'com.typemytype.robofont.layerData'
p2
(dp3
s."
LayerCount: 2
Fore
SplineSet
121 0 m 1
 121 326 l 1
 357 326 l 1
 357 1155 l 1
 121 1155 l 1
 121 1481 l 1
 1026 1481 l 1
 1026 1155 l 1
 790 1155 l 1
 790 326 l 1
 1026 326 l 1
 1026 0 l 1
 121 0 l 1
EndSplineSet
EndChar

StartChar: J
Encoding: 42 74 51
Width: 1274
VWidth: 0
Flags: HW
PickledData: "(dp1
S'com.typemytype.robofont.layerData'
p2
(dp3
s."
LayerCount: 2
Fore
SplineSet
490 -24 m 0
 302 -24 167 -2 50 69 c 1
 121 381 l 1
 209.781767279 344.599475416 317.440429688 310.887695312 414.9921875 310.887695312 c 0
 563.15234375 310.887695312 688 386.036228736 688 627 c 2
 688 1108 l 1
 372 1108 l 1
 372 1481 l 1
 1119 1481 l 1
 1119 473 l 2
 1119 169 821 -24 490 -24 c 0
EndSplineSet
EndChar

StartChar: K
Encoding: 43 75 53
Width: 1603
VWidth: 0
Flags: HW
PickledData: "(dp1
S'com.typemytype.robofont.layerData'
p2
(dp3
s."
LayerCount: 2
Fore
SplineSet
155 0 m 1
 155 1481 l 1
 586 1481 l 1
 586 859 l 1
 588 859 l 1
 696 992 l 1
 1065 1481 l 1
 1558 1481 l 1
 1052 786 l 1
 1588 0 l 1
 1060 0 l 1
 783 446 l 1
 680 626 l 1
 586 524 l 1
 586 0 l 1
 155 0 l 1
EndSplineSet
EndChar

StartChar: L
Encoding: 44 76 55
Width: 1295
VWidth: 0
Flags: HW
PickledData: "(dp1
S'com.typemytype.robofont.layerData'
p2
(dp3
s."
LayerCount: 2
Fore
SplineSet
155 0 m 1
 155 1481 l 1
 586 1481 l 1
 586 326 l 1
 1218 326 l 1
 1218 0 l 1
 155 0 l 1
EndSplineSet
EndChar

StartChar: Lslash
Encoding: 244 321 60
Width: 1257
VWidth: 0
Flags: HW
LayerCount: 2
Fore
SplineSet
119 0 m 1
 119 470 l 1
 -14 381 l 1
 -14 624 l 1
 119 716 l 1
 119 1481 l 1
 579 1481 l 1
 579 1035 l 1
 811 1197 l 1
 811 951 l 1
 579 790 l 1
 579 341 l 1
 1216 341 l 1
 1216 0 l 1
 119 0 l 1
EndSplineSet
EndChar

StartChar: M
Encoding: 45 77 61
Width: 1932
VWidth: 0
Flags: HW
PickledData: "(dp1
S'com.typemytype.robofont.layerData'
p2
(dp3
s."
LayerCount: 2
Fore
SplineSet
155 0 m 1
 155 1481 l 1
 627 1481 l 1
 963 627 l 1
 1301 1481 l 1
 1777 1481 l 1
 1777 0 l 1
 1388 0 l 1
 1388 617 l 1
 1402 954 l 5
 1117 233 l 1
 790 233 l 1
 508 954 l 5
 522 617 l 1
 522 0 l 1
 155 0 l 1
EndSplineSet
EndChar

StartChar: N
Encoding: 46 78 62
Width: 1632
VWidth: 0
Flags: HW
PickledData: "(dp1
S'com.typemytype.robofont.layerData'
p2
(dp3
s."
LayerCount: 2
Fore
SplineSet
155 0 m 1
 155 1481 l 1
 605 1481 l 1
 1116 677 l 1
 1099 1076 l 1
 1099 1481 l 1
 1477 1481 l 1
 1477 0 l 1
 1117 0 l 1
 517 938 l 1
 535 564 l 1
 535 0 l 1
 155 0 l 1
EndSplineSet
EndChar

StartChar: O
Encoding: 47 79 67
Width: 1626
VWidth: 0
Flags: HW
PickledData: "(dp1
S'com.typemytype.robofont.guides'
p2
(tsS'com.typemytype.robofont.layerData'
p3
(dp4
s."
LayerCount: 2
Fore
SplineSet
814 -24 m 0
 356 -24 110 243 110 740 c 0
 110 1240 359 1505 814 1505 c 0
 1270 1505 1516 1242 1516 740 c 0
 1516 243 1272 -24 814 -24 c 0
815 311 m 0
 989 311 1089 453 1089 740 c 0
 1089 1037 985 1170 815 1170 c 0
 646 1170 537 1041 537 740 c 0
 537 442 644 311 815 311 c 0
EndSplineSet
EndChar

StartChar: OE
Encoding: 258 338 68
Width: 1998
VWidth: 0
Flags: HW
LayerCount: 2
Fore
SplineSet
679 0 m 2
 436 0 62 109 62 729 c 0
 62 1275 337 1481 720 1481 c 2
 1976 1481 l 1
 1976 1139 l 1
 1395 1139 l 1
 1395 940 l 1
 1894 940 l 1
 1894 606 l 1
 1395 606 l 1
 1395 342 l 1
 1976 342 l 1
 1976 0 l 1
 679 0 l 2
766 342 m 1
 939 342 l 1
 939 1139 l 1
 773 1139 l 2
 588 1139 502 1076 502 727 c 0
 502 408 588 350 766 342 c 1
EndSplineSet
EndChar

StartChar: Oslash
Encoding: 148 216 76
Width: 1492
VWidth: 0
Flags: HW
LayerCount: 2
Fore
SplineSet
572.542792405 492.192616024 m 1
 922.90807257 1147.80334744 l 1
 890.868399677 1162.7330896 854.737267832 1170 815 1170 c 0
 646 1170 537 1041 537 740 c 0
 537 638.496600506 549.414019545 556.368353012 572.542792405 492.192616024 c 1
815 311 m 0
 989 311 1089 453 1089 740 c 0
 1089 853.555905142 1073.79662921 943.137264045 1045.51383339 1010.47676929 c 1
 686.472590454 343.115348885 l 1
 723.572378762 321.435321807 766.737103138 311 815 311 c 0
447 -102 m 1
 255 -102 l 1
 365.162686796 104.138689402 l 1
 197.456621906 229.095335616 110 443.663474641 110 740 c 0
 110 1240 359 1505 814 1505 c 0
 917.716958289 1505 1010.56993169 1491.39415226 1092.1353189 1464.46485765 c 1
 1148 1569 l 1
 1346 1569 l 1
 1248.26039528 1387.32827644 l 1
 1424.00940428 1264.58390919 1516 1046.97844317 1516 740 c 0
 1516 243 1272 -24 814 -24 c 0
 701.243582743 -24 601.336701355 -7.81685812661 514.786704228 23.9973111949 c 1
 447 -102 l 1
EndSplineSet
EndChar

StartChar: P
Encoding: 48 80 78
Width: 1502
VWidth: 0
Flags: HW
PickledData: "(dp1
S'com.typemytype.robofont.layerData'
p2
(dp3
s."
LayerCount: 2
Fore
SplineSet
155 0 m 1
 155 1481 l 1
 850 1481 l 2
 1140 1481 1416 1349 1416 1008 c 0
 1416 577.08565823 1133.94042969 479 586 479 c 1
 586 0 l 1
 155 0 l 1
586 797 m 1
 914 798 989 803 989 1002 c 0
 989 1188 759 1164 692 1164 c 2
 586 1164 l 1
 586 797 l 1
EndSplineSet
EndChar

StartChar: Q
Encoding: 49 81 79
Width: 1627
VWidth: 0
Flags: HW
PickledData: "(dp1
S'com.typemytype.robofont.layerData'
p2
(dp3
s."
LayerCount: 2
Fore
SplineSet
991 344 m 1
 1040 411 1090 575 1090 740 c 0
 1090 1037 987 1170 817 1170 c 0
 648 1170 537 1041 537 740 c 0
 537 479 655 338 799 311 c 1
 723 498 l 1
 934 498 l 1
 991 344 l 1
815 -24 m 0
 357 -24 110 243 110 740 c 0
 110 1240 360 1505 815 1505 c 0
 1271 1505 1517 1242 1517 740 c 0
 1517 368 1380 124 1119 25 c 1
 1260 -335 l 1
 1058 -423 l 1
 899 -22 l 1
 872 -24 844 -24 815 -24 c 0
EndSplineSet
EndChar

StartChar: R
Encoding: 50 82 80
Width: 1567
VWidth: 0
Flags: HW
PickledData: "(dp1
S'com.typemytype.robofont.layerData'
p2
(dp3
s."
LayerCount: 2
Fore
SplineSet
586 851 m 1
 712 851 l 2
 922 851 1012 867 1012 1017 c 0
 1012 1154 934 1164 691 1164 c 2
 586 1164 l 1
 586 851 l 1
155 0 m 1
 155 1481 l 1
 621 1481 l 2
 947 1481 1439 1517 1439 1042 c 0
 1439 818 1331 699 1121 615 c 1
 1491 94 l 1
 1491 0 l 1
 1081 0 l 1
 738 534 l 1
 586 534 l 1
 586 0 l 1
 155 0 l 1
EndSplineSet
EndChar

StartChar: S
Encoding: 51 83 84
Width: 1511
VWidth: 0
Flags: HW
PickledData: "(dp1
S'com.typemytype.robofont.layerData'
p2
(dp3
s."
LayerCount: 2
Fore
SplineSet
724 -24 m 4
 474 -24 284 34 126 124 c 5
 188 469 l 5
 264 469 l 5
 414 376 585 311 750 311 c 4
 807 311 954 311 954 423 c 4
 954 579 721 539 520 595 c 4
 262 667 161 790 161 1027 c 4
 161 1296 424 1505 790 1505 c 4
 987 1505 1189 1454 1337 1382 c 5
 1279 1033 l 5
 1202 1033 l 5
 1091 1114 948 1170 779 1170 c 4
 686 1170 610 1139 610 1071 c 4
 610 987 683 971 936 925 c 5
 1226 874 1392 722 1392 483 c 4
 1392 179 1135 -24 724 -24 c 4
EndSplineSet
EndChar

StartChar: T
Encoding: 52 84 90
Width: 1350
VWidth: 0
Flags: HW
PickledData: "(dp1
S'com.typemytype.robofont.layerData'
p2
(dp3
s."
LayerCount: 2
Fore
SplineSet
459 0 m 1
 459 1155 l 1
 33 1155 l 1
 33 1481 l 1
 1317 1481 l 1
 1317 1155 l 1
 890 1155 l 1
 890 0 l 1
 459 0 l 1
EndSplineSet
EndChar

StartChar: Thorn
Encoding: 154 222 92
Width: 1427
VWidth: 0
Flags: HW
LayerCount: 2
Fore
SplineSet
155 0 m 1
 155 1481 l 1
 586 1481 l 1
 586 1309 l 1
 821 1309 l 2
 1098 1309 1387 1194 1387 853 c 0
 1387 557 1170 342 795 342 c 2
 586 342 l 1
 586 0 l 1
 155 0 l 1
586 649 m 1
 774 650 973 647 973 846 c 0
 973 995 840 1011 586 1011 c 1
 586 649 l 1
EndSplineSet
EndChar

StartChar: U
Encoding: 53 85 93
Width: 1609
VWidth: 0
Flags: HW
PickledData: "(dp1
S'com.typemytype.robofont.layerData'
p2
(dp3
s."
LayerCount: 2
Fore
SplineSet
804 -24 m 0
 412 -24 148 176 148 521 c 2
 148 1481 l 1
 579 1481 l 1
 579 564 l 2
 579 410 663 311 803 311 c 0
 934 311 1031 404 1031 567 c 2
 1031 1481 l 1
 1461 1481 l 1
 1461 522 l 2
 1461 184 1213 -24 804 -24 c 0
EndSplineSet
EndChar

StartChar: V
Encoding: 54 86 104
Width: 1431
VWidth: 0
Flags: HW
PickledData: "(dp1
S'com.typemytype.robofont.layerData'
p2
(dp3
s."
LayerCount: 2
Fore
SplineSet
514 0 m 1
 18 1481 l 1
 471 1481 l 5
 651 809 l 1
 718 531 l 1
 719 531 l 1
 787 812 l 1
 975 1481 l 1
 1413 1481 l 1
 912 0 l 1
 514 0 l 1
EndSplineSet
EndChar

StartChar: W
Encoding: 55 87 105
Width: 2160
VWidth: 0
Flags: HW
PickledData: "(dp1
S'com.typemytype.robofont.layerData'
p2
(dp3
s."
LayerCount: 2
Fore
SplineSet
414 0 m 1
 36 1481 l 1
 470 1481 l 1
 626 671 l 1
 662 416 l 5
 666 416 l 5
 708 665 l 1
 906 1481 l 1
 1258 1481 l 1
 1448 654 l 1
 1488 418 l 5
 1525 657 l 1
 1696 1481 l 1
 2124 1481 l 1
 1748 0 l 1
 1284 0 l 1
 1072 863 l 1
 874 0 l 1
 414 0 l 1
EndSplineSet
EndChar

StartChar: X
Encoding: 56 88 110
Width: 1490
VWidth: 0
Flags: HW
PickledData: "(dp1
S'com.typemytype.robofont.layerData'
p2
(dp3
s."
LayerCount: 2
Fore
SplineSet
481 0 m 1
 33 0 l 1
 455 755 l 1
 55 1481 l 1
 527 1481 l 1
 625 1286 l 1
 747 1028 l 1
 871 1279 l 1
 977 1481 l 1
 1405 1481 l 1
 1023 780 l 1
 1457 0 l 1
 989 0 l 1
 863 251 l 1
 737 486 l 1
 611 243 l 1
 481 0 l 1
EndSplineSet
EndChar

StartChar: Y
Encoding: 57 89 111
Width: 1388
VWidth: 0
Flags: HW
PickledData: "(dp1
S'com.typemytype.robofont.layerData'
p2
(dp3
s."
LayerCount: 2
Fore
SplineSet
487 0 m 5
 487 563 l 5
 23 1481 l 5
 465 1481 l 5
 709 955 l 5
 941 1481 l 5
 1365 1481 l 5
 918 576 l 5
 918 0 l 5
 487 0 l 5
EndSplineSet
EndChar

StartChar: Z
Encoding: 58 90 116
Width: 1341
VWidth: 0
Flags: HW
PickledData: "(dp1
S'com.typemytype.robofont.layerData'
p2
(dp3
s."
LayerCount: 2
Fore
SplineSet
98 0 m 1
 98 320 l 1
 731 1155 l 1
 133 1155 l 1
 133 1481 l 1
 1234 1481 l 1
 1234 1161 l 1
 618 326 l 1
 1267 326 l 1
 1267 0 l 1
 98 0 l 1
EndSplineSet
EndChar

StartChar: a
Encoding: 65 97 120
Width: 1247
VWidth: 0
Flags: HW
PickledData: "(dp1
S'com.typemytype.robofont.layerData'
p2
(dp3
s."
LayerCount: 2
Fore
SplineSet
417 -24 m 4
 218 -24 89 124 89 306 c 4
 89 621 380 654 738 654 c 5
 738 749 712 787 543 787 c 4
 440 787 289 755 234 730 c 5
 168 986 l 5
 199 999 400 1059 558 1059 c 4
 919 1059 1124 975 1124 733 c 6
 1124 0 l 5
 759 0 l 5
 759 219 l 5
 696 56 562 -24 417 -24 c 4
573 225 m 4
 617 225 738 246 738 493 c 5
 601 476 485 466 485 332 c 4
 485 290 512 225 573 225 c 4
EndSplineSet
EndChar

StartChar: acute
Encoding: 114 180 124
Width: 1021
VWidth: 0
Flags: HW
LayerCount: 2
Fore
SplineSet
291 1186 m 1
 504 1534 l 1
 869 1534 l 1
 568 1186 l 1
 291 1186 l 1
EndSplineSet
EndChar

StartChar: ae
Encoding: 162 230 126
Width: 1772
VWidth: 0
Flags: HW
LayerCount: 2
Fore
SplineSet
463 -21 m 0
 137 -21 12 106 12 304 c 0
 12 548 266 630 545 651 c 1
 591 666 650 662 653 662 c 1
 654 731 618 798 424 798 c 0
 340 798 190 754 108 703 c 1
 51 963 l 1
 116 1011 328 1063 497 1063 c 0
 675 1063 806 1025 878 898 c 1
 947 1022 1111 1067 1237 1067 c 0
 1554 1067 1747 914 1747 610 c 2
 1747 420 l 1
 1047 420 l 1
 1063 277 1189 255 1323 255 c 0
 1406 255 1562 287 1624 377 c 1
 1671 375 l 1
 1726 86 l 1
 1639 29 1516 -28 1274 -28 c 0
 1033 -28 946 51 851 116 c 1
 780 65 614 -21 463 -21 c 0
564 240 m 0
 751 240 675 400 666 426 c 1
 570 415 408 454 408 334 c 0
 408 259 446 240 564 240 c 0
1044 652 m 1
 1348 652 l 1
 1346 790 1283 819 1199 819 c 0
 1110 819 1031 774 1044 652 c 1
EndSplineSet
EndChar

StartChar: ampersand
Encoding: 6 38 129
Width: 1660
VWidth: 0
Flags: HW
LayerCount: 2
Fore
SplineSet
1187 1178 m 0
 1187 1017 1075 885 892 842 c 1
 1175 549 l 1
 1175 773 l 1
 1548 774 l 1
 1523 647 1508 504 1371 376 c 1
 1448 304 1808 0 1808 0 c 1
 1234 0 l 1
 1101 129 l 1
 995 35 829 -25 667 -25 c 0
 314 -25 100 183 100 444 c 0
 100 645 231 777 351 854 c 1
 262 936 205 1013 205 1154 c 0
 205 1322 342 1505 695 1505 c 0
 1013 1505 1187 1366 1187 1178 c 0
921 300 m 1
 521 693 l 1
 490 643 476 593 476 545 c 0
 476 382 634 247 780 247 c 0
 831 247 880 263 921 300 c 1
737 999 m 1
 791 1052 844 1126 844 1174 c 0
 844 1244 775 1281 708 1281 c 0
 647 1281 589 1251 589 1187 c 0
 589 1131 702 1026 737 999 c 1
EndSplineSet
EndChar

StartChar: approxequal
Encoding: 389 8776 131
Width: 1384
VWidth: 0
Flags: HW
LayerCount: 2
Fore
SplineSet
360 205 m 1
 206 225 l 1
 231 403 335 517 496 517 c 0
 574 517 647 486 717 445 c 0
 789 403 850 376 894 383 c 1
 971 393 1014 433 1025 519 c 1
 1179 498 l 1
 1157 326 1057 211 896 211 c 0
 832 211 753 236 659 289 c 0
 591 328 542 352 506 352 c 0
 424 352 378 294 360 205 c 1
360 597 m 1
 206 617 l 1
 231 791 336 903 499 903 c 0
 576 903 648 874 717 832 c 0
 785 791 841 765 885 767 c 0
 968 769 1014 822 1025 907 c 1
 1179 887 l 1
 1157 715 1054 597 895 597 c 0
 829 597 753 623 659 676 c 1
 593 712 545 738 506 738 c 0
 424 738 378 684 360 597 c 1
EndSplineSet
EndChar

StartChar: asciicircum
Encoding: 62 94 133
Width: 1588
VWidth: 0
Flags: HW
LayerCount: 2
Fore
SplineSet
185 603 m 1
 666 1399 l 1
 899 1399 l 1
 1407 606 l 1
 1116 606 l 1
 781 1146 l 1
 475 603 l 1
 185 603 l 1
EndSplineSet
EndChar

StartChar: asciitilde
Encoding: 94 126 134
Width: 1574
VWidth: 0
Flags: HW
LayerCount: 2
Fore
SplineSet
1082 310 m 0
 798 310 588 558 500 558 c 0
 426 558 363 462 375 308 c 1
 160 352 l 1
 175 684 307 848 522 848 c 0
 727 848 943 596 1080 596 c 0
 1216 596 1219 779 1208 850 c 1
 1425 803 l 1
 1410 478 1311 310 1082 310 c 0
EndSplineSet
EndChar

StartChar: asterisk
Encoding: 10 42 135
Width: 1168
VWidth: 0
Flags: HW
LayerCount: 2
Fore
SplineSet
521 1100 m 1
 521 1164 451 1299 451 1392 c 0
 451 1456 485 1495 553 1495 c 0
 624 1495 656 1450 656 1392 c 0
 656 1300 584 1163 584 1100 c 1
 521 1100 l 1
EndSplineSet
EndChar

StartChar: at
Encoding: 32 64 136
Width: 1879
VWidth: 0
Flags: HW
LayerCount: 2
Fore
SplineSet
1037 -154 m 0
 512 -154 146 197 146 688 c 0
 146 1185 523 1539 1034 1539 c 0
 1519 1539 1861 1215 1861 769 c 0
 1861 408 1686 196 1409 196 c 0
 1297 196 1223 217 1181 315 c 1
 1124 245 975 222 876 222 c 0
 676 222 530 415 530 614 c 0
 530 926 738 1182 985 1182 c 0
 1138 1182 1172 1121 1226 1094 c 1
 1232 1142 l 1
 1452 1142 l 1
 1382 528 l 2
 1379 503 1375 476 1375 456 c 0
 1375 422 1373 369 1458 369 c 0
 1632 369 1651 618 1651 751 c 0
 1651 1109 1387 1337 1039 1337 c 0
 637 1337 349 1063 349 685 c 0
 349 295 666 47 1034 47 c 0
 1192 47 1356 80 1487 151 c 1
 1540 16 l 1
 1397 -86 1205 -154 1037 -154 c 0
949 399 m 0
 987 399 1050 392 1147 433 c 1
 1190 882 l 1
 1147 940 1086 981 1029 981 c 0
 868 981 756 803 756 634 c 0
 756 461 857 399 949 399 c 0
EndSplineSet
EndChar

StartChar: b
Encoding: 66 98 138
Width: 1356
VWidth: 0
Flags: HW
PickledData: "(dp1
S'com.typemytype.robofont.layerData'
p2
(dp3
s."
LayerCount: 2
Fore
SplineSet
853 -24 m 0
 731 -24 613 44 534 132 c 1
 534 0 l 1
 146 0 l 1
 146 1480.99 l 1
 534 1480.99 l 1
 534 936 l 1
 642 1005 706 1059 841 1059 c 0
 1140 1059 1254 848 1254 522 c 0
 1254 230 1132 -24 853 -24 c 0
851 527 m 0
 851 733.376 771.266 786.812 691.774 786.812 c 0
 612.768 786.812 534 734 534 734 c 1
 534 257 l 1
 573.50390625 251.708984375 608.784179688 247.794921875 640.125976562 247.794921875 c 0
 791.454101562 247.794921875 851 330.721 851 527 c 0
EndSplineSet
EndChar

StartChar: backslash
Encoding: 60 92 139
Width: 1277
VWidth: 0
Flags: HW
LayerCount: 2
Fore
SplineSet
827 0 m 1
 249 1481 l 1
 542 1481 l 1
 1123 0 l 1
 827 0 l 1
EndSplineSet
EndChar

StartChar: bar
Encoding: 92 124 140
Width: 1557
VWidth: 0
Flags: HW
LayerCount: 2
Fore
SplineSet
629 -447 m 1
 629 1481 l 1
 931 1481 l 1
 931 -447 l 1
 629 -447 l 1
EndSplineSet
EndChar

StartChar: braceleft
Encoding: 91 123 141
Width: 1163
VWidth: 0
Flags: HW
LayerCount: 2
Fore
SplineSet
864 -361 m 2
 565 -361 354 -301 354 20 c 2
 354 162 l 2
 354 388 262 475 7 475 c 1
 7 709 l 1
 260 709 354 784 354 1020 c 2
 354 1208 l 2
 354 1504 594 1546 881 1546 c 2
 1059 1546 l 1
 1059 1320 l 1
 1025 1320 l 2
 845 1320 727 1300 727 1090 c 2
 727 1028 l 2
 727 773 630 662 450 604 c 1
 450 580 l 1
 597 534 727 431 727 211 c 2
 727 128 l 2
 727 -118 826 -135 1014 -135 c 1
 1059 -134 l 1
 1059 -361 l 1
 864 -361 l 2
EndSplineSet
EndChar

StartChar: braceright
Encoding: 93 125 142
Width: 1163
VWidth: 0
Flags: HW
LayerCount: 2
Fore
SplineSet
4 -364 m 1
 4 -137 l 1
 38 -137 l 2
 217 -137 335 -114 335 95 c 2
 335 158 l 2
 335 412 435 522 615 580 c 1
 615 604 l 1
 468 650 335 751 335 971 c 2
 335 1053 l 2
 335 1300 237 1318 49 1318 c 2
 4 1318 l 1
 4 1545 l 1
 4 1545 171 1546 199 1546 c 0
 498 1546 708 1481 708 1160 c 2
 708 1020 l 2
 708 794 802 706 1056 706 c 1
 1056 475 l 1
 803 475 708 397 708 162 c 2
 708 -25 l 2
 708 -321 469 -364 183 -364 c 2
 4 -364 l 1
EndSplineSet
EndChar

StartChar: bracketleft
Encoding: 59 91 143
Width: 924
VWidth: 0
Flags: HW
LayerCount: 2
Fore
SplineSet
175 -362 m 1
 175 1546 l 1
 816 1546 l 1
 816 1298 l 1
 520 1298 l 1
 520 -116 l 1
 816 -116 l 1
 816 -362 l 1
 175 -362 l 1
EndSplineSet
EndChar

StartChar: bracketright
Encoding: 61 93 144
Width: 924
VWidth: 0
Flags: HW
LayerCount: 2
Fore
SplineSet
108 -362 m 1
 108 -116 l 1
 406 -116 l 1
 406 1298 l 1
 108 1298 l 1
 108 1546 l 1
 752 1546 l 1
 752 -362 l 1
 108 -362 l 1
EndSplineSet
EndChar

StartChar: breve
Encoding: 340 728 145
Width: 833
VWidth: 0
Flags: HW
LayerCount: 2
Fore
SplineSet
424 1153 m 0
 196 1153 77 1269 74 1485 c 1
 254 1485 l 1
 264 1391 300 1320 424 1320 c 0
 535 1320 588 1388 594 1485 c 1
 774 1485 l 1
 771 1269 637 1153 424 1153 c 0
EndSplineSet
EndChar

StartChar: brokenbar
Encoding: 101 166 146
Width: 477
VWidth: 0
Flags: HW
LayerCount: 2
Fore
SplineSet
108 -142 m 1
 108 536 l 1
 370 536 l 1
 370 -142 l 1
 108 -142 l 1
108 827 m 1
 108 1505 l 1
 370 1505 l 1
 370 827 l 1
 108 827 l 1
EndSplineSet
EndChar

StartChar: bullet
Encoding: 366 8226 147
Width: 1337
VWidth: 0
Flags: HW
LayerCount: 2
Fore
SplineSet
670 200 m 0
 413 200 187 412 187 658 c 0
 187 905 414 1112 670 1112 c 0
 930 1112 1154 905 1154 658 c 0
 1154 411 928 200 670 200 c 0
EndSplineSet
EndChar

StartChar: c
Encoding: 67 99 148
Width: 1167
VWidth: 0
Flags: HW
PickledData: "(dp1
S'com.typemytype.robofont.layerData'
p2
(dp3
s."
LayerCount: 2
Fore
SplineSet
676 -24 m 0
 370 -24 102 138 102 518 c 0
 102 922 392 1059 669 1059 c 0
 793 1059 932 1029 1068 954 c 1
 1010 705 l 1
 931 758 837 787 750 787 c 0
 612 787 485 711 485 517 c 0
 485 307 638 248 742 248 c 0
 854 248 962 290 1014 324 c 1
 1073 73 l 1
 966 14 820 -24 676 -24 c 0
EndSplineSet
EndChar

StartChar: caron
Encoding: 339 711 150
Width: 765
VWidth: 0
Flags: HW
LayerCount: 2
Fore
SplineSet
269 1178 m 1
 -44 1520 l 1
 217 1520 l 1
 385 1336 l 1
 550 1520 l 1
 808 1520 l 1
 495 1178 l 1
 269 1178 l 1
EndSplineSet
EndChar

StartChar: cedilla
Encoding: 117 184 155
Width: 1110
VWidth: 0
Flags: HW
LayerCount: 2
Fore
SplineSet
488 -523 m 0
 436 -523 347 -504 295 -480 c 1
 318 -342 l 1
 318 -342 376 -343 378 -342 c 1
 393 -370 448 -386 490 -386 c 0
 577 -386 627 -338 627 -280 c 0
 627 -230 575 -192 512 -192 c 0
 499 -192 488 -194 471 -197 c 1
 456 -194 436 -188 421 -185 c 1
 489 2 l 1
 593 2 l 1
 553 -91 l 1
 749 -89 807 -198 807 -280 c 0
 807 -409 686 -523 488 -523 c 0
EndSplineSet
EndChar

StartChar: cent
Encoding: 97 162 156
Width: 1227
VWidth: 0
Flags: HW
LayerCount: 2
Fore
SplineSet
706 266 m 1
 706 775 l 1
 606 749 513 673 513 517 c 0
 513 359 612 290 706 266 c 1
812 -293 m 1
 706 -293 l 1
 706 -25 l 1
 407 -18 110 147 110 518 c 0
 110 915 432 1056 706 1061 c 1
 706 1316 l 1
 812 1316 l 1
 812 1055 l 1
 911 1043 1016 1011 1119 954 c 1
 1061 697 l 1
 1009 739 893 777 812 784 c 1
 812 255 l 1
 917 260 1016 303 1065 335 c 1
 1124 83 l 1
 1038 36 927 -6 812 -20 c 1
 812 -293 l 1
EndSplineSet
EndChar

StartChar: circumflex
Encoding: 338 710 157
Width: 824
VWidth: 0
Flags: HW
LayerCount: 2
Fore
SplineSet
-13 1175 m 1
 277 1520 l 1
 553 1520 l 1
 844 1175 l 1
 546 1175 l 1
 415 1339 l 1
 275 1175 l 1
 -13 1175 l 1
EndSplineSet
EndChar

StartChar: colon
Encoding: 26 58 158
Width: 651
VWidth: 0
Flags: HW
LayerCount: 2
Fore
SplineSet
322 0 m 0
 200 0 102 98 102 220 c 0
 102 342 200 441 322 441 c 0
 444 441 546 342 546 220 c 0
 546 98 444 0 322 0 c 0
322 593 m 0
 200 593 102 693 102 815 c 0
 102 937 200 1037 322 1037 c 0
 444 1037 546 937 546 815 c 0
 546 693 444 593 322 593 c 0
EndSplineSet
EndChar

StartChar: comma
Encoding: 12 44 159
Width: 591
VWidth: 0
Flags: HW
LayerCount: 2
Fore
SplineSet
106 -241 m 1
 182 352 l 1
 577 352 l 1
 292 -241 l 1
 106 -241 l 1
EndSplineSet
EndChar

StartChar: copyright
Encoding: 104 169 160
Width: 1898
VWidth: 0
Flags: HW
LayerCount: 2
Fore
SplineSet
986 240 m 0
 721 240 516 439 516 709 c 0
 516 998 724 1186 997 1186 c 0
 1155 1186 1255 1125 1334 1072 c 1
 1271 927 l 1
 1247 951 1144 1024 1020 1024 c 0
 818 1024 725 867 725 709 c 0
 725 560 795 407 993 407 c 0
 1140 407 1225 476 1225 476 c 1
 1271 325 l 1
 1256 303 1110 240 986 240 c 0
952 79 m 0
 1354 79 1608 348 1608 708 c 0
 1608 1070 1335 1329 952 1329 c 0
 557 1329 307 1052 307 702 c 0
 307 337 573 79 952 79 c 0
952 -111 m 0
 478 -111 86 207 86 702 c 0
 86 1172 459 1515 952 1515 c 0
 1431 1515 1815 1176 1815 702 c 0
 1815 232 1444 -111 952 -111 c 0
1271 927 m 1
 1278 920 1278 917 1269 922 c 1
 1271 927 l 1
EndSplineSet
EndChar

StartChar: currency
Encoding: 99 164 161
Width: 897
VWidth: 0
Flags: HW
LayerCount: 2
Fore
SplineSet
120 253 m 1
 16 354 l 1
 110 451 l 1
 67 501 34 595 34 689 c 0
 34 783 66 876 110 932 c 1
 16 1026 l 1
 120 1125 l 1
 213 1032 l 1
 265 1075 360 1107 455 1107 c 0
 549 1107 634 1077 691 1034 c 1
 786 1125 l 1
 888 1026 l 1
 793 932 l 1
 836 876 873 783 873 689 c 0
 873 595 836 501 793 449 c 1
 888 354 l 1
 786 253 l 1
 691 349 l 1
 634 305 549 274 455 274 c 0
 360 274 265 307 213 349 c 1
 120 253 l 1
455 421 m 0
 609 421 708 524 708 689 c 0
 708 854 609 957 455 957 c 0
 302 957 197 854 197 689 c 0
 197 524 302 421 455 421 c 0
EndSplineSet
EndChar

StartChar: d
Encoding: 68 100 162
Width: 1348
VWidth: 0
Flags: HW
PickledData: "(dp1
S'com.typemytype.robofont.layerData'
p2
(dp3
s."
LayerCount: 2
Fore
SplineSet
520 -24 m 0
 243 -24 102 218 102 536 c 0
 102 847 248 1059 535 1059 c 0
 645 1059 720 1024 822 961 c 1
 822 1481 l 1
 1210 1481 l 1
 1210 0 l 1
 822 0 l 1
 822 129 l 1
 759 37 641 -24 520 -24 c 0
485 527 m 0
 485 331 565 248 716 248 c 0
 747 248 782 251 822 256 c 1
 822 734 l 1
 822 734 743 787 664 787 c 0
 585 787 485 733 485 527 c 0
EndSplineSet
EndChar

StartChar: dagger
Encoding: 390 8224 163
Width: 1222
VWidth: 0
Flags: HW
LayerCount: 2
Fore
SplineSet
481 -48 m 1
 481 824 l 1
 141 824 l 1
 141 1031 l 1
 484 1031 l 1
 484 1442 l 1
 740 1442 l 1
 740 1029 l 1
 1083 1029 l 1
 1083 820 l 1
 740 820 l 1
 740 -48 l 1
 481 -48 l 1
EndSplineSet
EndChar

StartChar: daggerdbl
Encoding: 365 8225 164
Width: 1219
VWidth: 0
Flags: HW
LayerCount: 2
Fore
SplineSet
480 -48 m 1
 480 337 l 1
 139 337 l 1
 139 545 l 1
 486 545 l 1
 486 863 l 1
 139 863 l 1
 139 1072 l 1
 482 1072 l 1
 482 1442 l 1
 738 1442 l 1
 738 1069 l 1
 1081 1069 l 1
 1081 860 l 1
 736 860 l 1
 736 542 l 1
 1081 542 l 1
 1081 335 l 1
 738 335 l 1
 738 -48 l 1
 480 -48 l 1
EndSplineSet
EndChar

StartChar: uni030F
Encoding: -1 783 165
Width: 900
VWidth: 0
Flags: W
LayerCount: 2
Fore
SplineSet
496 1186 m 1
 265 1534 l 1
 644 1534 l 1
 771 1186 l 1
 496 1186 l 1
-21 1186 m 1
 -243 1534 l 1
 143 1534 l 1
 257 1186 l 1
 -21 1186 l 1
264 1038 m 0
EndSplineSet
EndChar

StartChar: dcroat
Encoding: 203 273 167
Width: 1309
VWidth: 0
Flags: HW
PickledData: "(dp1
S'com.typemytype.robofont.layerData'
p2
(dp3
s."
LayerCount: 2
Fore
SplineSet
496.7 1242.5 m 1
 496.7 1395.5 l 1
 1303 1395.5 l 1
 1303 1242.5 l 1
 496.7 1242.5 l 1
EndSplineSet
Refer: 162 100 N 1 0 0 1 0 0 2
EndChar

StartChar: degree
Encoding: 111 176 168
Width: 1025
VWidth: 0
Flags: HW
LayerCount: 2
Fore
SplineSet
515 874 m 0
 632 874 724 966 724 1078 c 0
 724 1188 631 1282 515 1282 c 0
 398 1282 306 1188 306 1078 c 0
 306 963 400 874 515 874 c 0
515 766 m 0
 332 766 188 905 188 1078 c 0
 188 1252 333 1387 515 1387 c 0
 697 1387 843 1252 843 1078 c 0
 843 904 697 766 515 766 c 0
EndSplineSet
EndChar

StartChar: dieresis
Encoding: 103 168 169
Width: 903
VWidth: 0
Flags: HW
LayerCount: 2
Fore
SplineSet
95 1160 m 1
 95 1448 l 1
 363 1448 l 1
 363 1160 l 1
 95 1160 l 1
527 1160 m 1
 527 1448 l 1
 793 1448 l 1
 793 1160 l 1
 527 1160 l 1
EndSplineSet
EndChar

StartChar: divide
Encoding: 179 247 170
Width: 1568
VWidth: 0
Flags: HW
LayerCount: 2
Fore
SplineSet
785 0 m 0
 672 0 584 90 584 203 c 0
 584 315 672 405 785 405 c 0
 897 405 987 315 987 203 c 0
 987 90 897 0 785 0 c 0
187 497 m 1
 187 735 l 1
 1385 735 l 1
 1385 497 l 1
 187 497 l 1
785 830 m 0
 672 830 584 920 584 1032 c 0
 584 1145 672 1236 785 1236 c 0
 897 1236 987 1145 987 1032 c 0
 987 920 897 830 785 830 c 0
EndSplineSet
EndChar

StartChar: dollar
Encoding: 4 36 171
Width: 1284
VWidth: 0
Flags: HW
LayerCount: 2
Fore
SplineSet
538 -328 m 1
 538 1 l 1
 437 1 184 57 103 120 c 1
 167 391 l 1
 222 391 l 1
 222 391 388 310 544 310 c 1
 544 524 l 1
 382 559 79 621 79 960 c 0
 79 1156 248 1308 538 1343 c 1
 538 1638 l 1
 722 1638 l 1
 722 1345 l 1
 824 1344 1025 1301 1096 1255 c 1
 1043 980 l 1
 980 980 l 1
 913 1016 824 1044 714 1050 c 1
 714 858 l 1
 1043 810 1222 701 1222 459 c 0
 1222 238 1031 14 722 3 c 1
 722 -328 l 1
 538 -328 l 1
843 412 m 0
 843 466 785 493 707 508 c 1
 707 308 l 1
 775 316 843 338 843 412 c 0
556 886 m 1
 556 1051 l 1
 505 1051 442 1017 442 964 c 0
 442 931 490 900 556 886 c 1
EndSplineSet
EndChar

StartChar: dotaccent
Encoding: 341 729 172
Width: 152
VWidth: 0
Flags: HW
LayerCount: 2
Fore
SplineSet
74 142 m 0
 -75 142 -148 228 -148 335 c 0
 -148 440 -74 529 74 529 c 0
 223 529 297 439 297 333 c 0
 297 226 222 142 74 142 c 0
EndSplineSet
EndChar

StartChar: dotlessi
Encoding: 231 305 173
Width: 692
VWidth: 0
Flags: HW
LayerCount: 2
Fore
SplineSet
153 0 m 1
 153 1038 l 1
 541 1038 l 1
 541 0 l 1
 153 0 l 1
EndSplineSet
EndChar

StartChar: e
Encoding: 69 101 174
Width: 1279
VWidth: 0
Flags: HW
PickledData: "(dp1
S'com.typemytype.robofont.layerData'
p2
(dp3
s."
LayerCount: 2
Fore
SplineSet
732 -24 m 0
 339 -24 102 131 102 515 c 0
 102 878 330 1059 674 1059 c 4
 976 1059 1159 901 1159 617 c 2
 1159 447 l 1
 483 447 l 1
 497.517 295.056 630.920898438 231.436523438 764.061523438 231.436523438 c 0
 858.986328125 231.436523438 945.40234375 263.692382812 1023 302 c 1
 1095 302 l 1
 1139 85 l 1
 1040 19 938 -24 732 -24 c 0
474 638 m 1
 855 638 l 1
 850 774 757 833 652 833 c 0
 565 833 480 741 474 638 c 1
EndSplineSet
EndChar

StartChar: eight
Encoding: 24 56 180
Width: 1337
VWidth: 0
Flags: HW
LayerCount: 2
Fore
SplineSet
668 -25 m 0
 261 -25 70 158 70 426 c 0
 70 562 108 655 272 727 c 1
 147 791 105 967 105 1066 c 0
 105 1295 295 1507 670 1507 c 0
 1031 1507 1200 1350 1224 1149 c 1
 1229 1043 1175 855 1032 799 c 1
 1217 720 1267 586 1267 419 c 0
 1267 159 1044 -25 668 -25 c 0
685 276 m 0
 686 276 835 300 835 420 c 0
 835 451 865 613 571 618 c 1
 515 591 503 531 503 470 c 0
 503 355 599 276 685 276 c 0
737 913 m 1
 790 954 799 988 799 1044 c 0
 799 1132 745 1213 668 1213 c 0
 570 1213 541 1116 541 1070 c 0
 541 947 554 970 737 913 c 1
EndSplineSet
EndChar

StartChar: ellipsis
Encoding: 391 8230 181
Width: 2328
VWidth: 0
Flags: HW
LayerCount: 2
Fore
SplineSet
1950 -29 m 0
 1828 -29 1724 76 1724 198 c 0
 1724 321 1828 424 1950 424 c 0
 2075 424 2179 321 2179 198 c 0
 2179 76 2075 -29 1950 -29 c 0
1174 -29 m 0
 1052 -29 948 76 948 198 c 0
 948 321 1052 424 1174 424 c 0
 1299 424 1403 321 1403 198 c 0
 1403 76 1299 -29 1174 -29 c 0
398 -29 m 0
 276 -29 172 76 172 198 c 0
 172 321 276 424 398 424 c 0
 523 424 627 321 627 198 c 0
 627 76 523 -29 398 -29 c 0
EndSplineSet
EndChar

StartChar: emdash
Encoding: 358 8212 183
Width: 1704
VWidth: 0
Flags: HW
LayerCount: 2
Fore
SplineSet
-114 472 m 1
 -114 718 l 1
 1822 718 l 1
 1822 472 l 1
 -114 472 l 1
EndSplineSet
EndChar

StartChar: endash
Encoding: 357 8211 184
Width: 1054
VWidth: 0
Flags: HW
LayerCount: 2
Fore
SplineSet
-114 472 m 1
 -114 718 l 1
 1171 718 l 1
 1171 472 l 1
 -114 472 l 1
EndSplineSet
EndChar

StartChar: equal
Encoding: 29 61 186
Width: 1277
VWidth: 0
Flags: HW
LayerCount: 2
Fore
SplineSet
153 227 m 1
 153 474 l 1
 1123 474 l 1
 1123 227 l 1
 153 227 l 1
153 679 m 1
 153 926 l 1
 1123 926 l 1
 1123 679 l 1
 153 679 l 1
EndSplineSet
EndChar

StartChar: eth
Encoding: 172 240 187
Width: 1290
VWidth: 0
Flags: HW
LayerCount: 2
Fore
SplineSet
653 244 m 0
 755 244 787 316 787 447 c 2
 787 629 l 1
 787 629 741 681 655 681 c 0
 575 681 524 642 524 470 c 0
 524 333 526 244 653 244 c 0
643 -25 m 0
 302 -25 80 153 80 485 c 0
 80 761 298 926 542 926 c 0
 603 926 734 911 787 847 c 1
 787 942 751 1103 557 1175 c 1
 486 1035 l 1
 364 1086 l 1
 427 1209 l 1
 427 1209 306 1243 207 1245 c 1
 261 1479 l 1
 381 1469 441 1459 539 1444 c 1
 604 1552 l 1
 726 1501 l 1
 671 1406 l 1
 993 1286 1210 1006 1210 555 c 0
 1210 173 988 -25 643 -25 c 0
EndSplineSet
EndChar

StartChar: exclam
Encoding: 1 33 188
Width: 720
VWidth: 0
Flags: HW
LayerCount: 2
Fore
SplineSet
384 -29 m 0
 262 -29 157 76 157 198 c 0
 157 321 262 424 384 424 c 0
 509 424 613 321 613 198 c 0
 613 76 509 -29 384 -29 c 0
258 546 m 1
 168 1481 l 1
 592 1481 l 1
 512 546 l 1
 258 546 l 1
EndSplineSet
EndChar

StartChar: exclamdown
Encoding: 96 161 189
Width: 696
VWidth: 0
Flags: HW
LayerCount: 2
Fore
SplineSet
308 1063 m 0
 430 1063 535 958 535 836 c 0
 535 713 430 610 308 610 c 0
 183 610 79 713 79 836 c 0
 79 958 183 1063 308 1063 c 0
434 488 m 1
 524 -447 l 1
 100 -447 l 1
 180 488 l 1
 434 488 l 1
EndSplineSet
EndChar

StartChar: f
Encoding: 70 102 190
Width: 855
VWidth: 0
Flags: HW
PickledData: "(dp1
S'com.typemytype.robofont.layerData'
p2
(dp3
s."
LayerCount: 2
Fore
SplineSet
196 0 m 1
 196 808 l 1
 71 808 l 1
 71 1038 l 1
 196 1038 l 1
 196 1099 l 2
 196 1350 351 1466 620 1466 c 0
 694 1466 777 1458 834 1452 c 1
 834 1200 l 1
 798.998 1203.46 766.674 1206.06 737.577 1206.06 c 0
 636.221 1206.06 574 1174.53 574 1038 c 1
 818 1038 l 1
 818 808 l 1
 583 808 l 1
 583 0 l 1
 196 0 l 1
EndSplineSet
EndChar

StartChar: five
Encoding: 21 53 191
Width: 1255
VWidth: 0
Flags: HW
LayerCount: 2
Fore
SplineSet
570 -25 m 0
 349 -25 178 36 85 136 c 1
 85 486 l 1
 154 486 l 1
 154 486 276 330 509 330 c 0
 642 330 757 367 757 516 c 0
 757 668 635 724 508 724 c 1
 430 725 103 744 103 744 c 1
 103 1481 l 1
 1085 1481 l 1
 1085 1143 l 1
 542 1143 l 1
 542 990 l 2
 542 989 659 977 713 972 c 0
 851 957 1209 872 1209 521 c 0
 1209 156 941 -25 570 -25 c 0
EndSplineSet
EndChar

StartChar: florin
Encoding: 392 402 192
Width: 1178
VWidth: 0
Flags: HW
LayerCount: 2
Fore
SplineSet
206 -200 m 0
 163 -200 59 -196 14 -189 c 1
 10 103 l 1
 40 111 102 86 183 86 c 0
 330 86 365 333 367 435 c 1
 367 434.165997089 366.304439144 433.331994178 366.07351746 432.497991137 c 1
 375.156684933 493.988773658 403.967519717 675.807827898 392 605 c 1
 277 605 l 1
 277 841 l 1
 425 841 l 1
 447 992 l 1
 507 1370 746 1387 961 1387 c 0
 1004 1387 1071 1386 1138 1377 c 1
 1143 1083 l 1
 1128 1078 1048 1095 981 1095 c 0
 843 1095 830 1004 828 982 c 1
 833 1008 810 817 815 841 c 1
 1011 841 l 1
 1012 605 l 1
 775 605 l 1
 707 167 l 2
 665 -100 439 -200 206 -200 c 0
366.07351746 432.497991137 m 1
 366.027555503 432.331994048 366.00000047 432.165996959 366 432 c 1
 366.02435986 432.16510572 366.04886624 432.331105208 366.07351746 432.497991137 c 1
366 432 m 1
 362 403 363 409 366 432 c 1
EndSplineSet
EndChar

StartChar: foundryicon
Encoding: 383 -1 193
Width: 1622
VWidth: 0
Flags: HW
LayerCount: 2
Fore
SplineSet
344 277 m 1
 512 819 l 1
 53 1157 l 1
 625 1168 l 1
 803 1710 l 1
 991 1168 l 1
 1563 1168 l 1
 1102 819 l 1
 1272 277 l 1
 803 604 l 1
 344 277 l 1
EndSplineSet
EndChar

StartChar: four
Encoding: 20 52 194
Width: 1325
VWidth: 0
Flags: HW
LayerCount: 2
Fore
SplineSet
696 0 m 1
 696 267 l 1
 26 267 l 1
 26 578 l 1
 522 1481 l 1
 1135 1481 l 1
 1135 560 l 1
 1297 560 l 1
 1297 267 l 1
 1135 267 l 1
 1135 0 l 1
 696 0 l 1
394 560 m 1
 696 560 l 1
 696 1184 l 1
 394 560 l 1
EndSplineSet
EndChar

StartChar: fraction
Encoding: 369 8260 195
Width: 1358
VWidth: 0
Flags: HW
LayerCount: 2
Fore
SplineSet
230 0 m 1
 787 1482 l 1
 1083 1482 l 1
 522 0 l 1
 230 0 l 1
EndSplineSet
EndChar

StartChar: g
Encoding: 71 103 196
Width: 1276
VWidth: 0
Flags: HW
PickledData: "(dp1
S'com.typemytype.robofont.layerData'
p2
(dp3
s."
LayerCount: 2
Fore
SplineSet
567 -408 m 0
 414 -408 274 -363 179 -325 c 1
 242 -64 l 1
 351 -112 476 -133 530 -133 c 0
 709 -133 767 -116 768 59 c 9
 768 113 l 1
 743 46 635 9 555 9 c 0
 233 9 102 195 102 542 c 0
 102 843 216 1060 489 1060 c 0
 597 1060 671 1025 760 904 c 1
 761 1035 l 1
 1160 1035 l 1
 1160 74 l 2
 1160 -298 862 -408 567 -408 c 0
651 248 m 0
 704 248 740 270 760 281 c 1
 760 775 l 1
 737 785 717 787 703 787 c 0
 562 787 503 670 503 551 c 0
 503 381.071819869 500.673361323 248 651 248 c 0
EndSplineSet
EndChar

StartChar: gcommaaccent
Encoding: 217 291 199
Width: 1231
VWidth: 0
Flags: HW
PickledData: "(dp1
S'com.typemytype.robofont.layerData'
p2
(dp3
s."
LayerCount: 2
Fore
SplineSet
892 1795 m 1
 833 1222 l 1
 498 1222 l 1
 721 1795 l 1
 892 1795 l 1
EndSplineSet
Refer: 196 103 N 1 0 0 1 0 0 2
EndChar

StartChar: germandbls
Encoding: 155 223 201
Width: 1286
VWidth: 0
Flags: HW
LayerCount: 2
Fore
SplineSet
118 0 m 1
 118 1029 l 2
 118 1334 289 1505 627 1505 c 0
 937 1505 1134 1363 1134 1163 c 0
 1134 1007 1007 897 871 875 c 1
 871 857 l 1
 1146 808 1263 631 1263 467 c 0
 1263 152 1054 -5 703 -5 c 0
 686 -5 649 -1 606 0 c 1
 606 294 l 1
 630 294 l 2
 779 294 870 342 870 488 c 0
 870 618 762 675 603 675 c 1
 603 990 l 1
 743 990 803 1055 803 1118 c 0
 803 1178 750 1236 660 1236 c 0
 511 1236 507 1139 507 1068 c 2
 507 0 l 1
 118 0 l 1
EndSplineSet
EndChar

StartChar: grave
Encoding: 64 96 202
Width: 1039
VWidth: 0
Flags: HW
LayerCount: 2
Fore
SplineSet
516 1186 m 1
 197 1534 l 1
 578 1534 l 1
 795 1186 l 1
 516 1186 l 1
EndSplineSet
EndChar

StartChar: greater
Encoding: 30 62 203
Width: 1266
VWidth: 0
Flags: HW
LayerCount: 2
Fore
SplineSet
74 -16 m 1
 74 265 l 1
 795 576 l 1
 74 880 l 1
 74 1166 l 1
 1197 681 l 1
 1197 472 l 1
 74 -16 l 1
EndSplineSet
EndChar

StartChar: greaterequal
Encoding: 393 8805 204
Width: 1743
VWidth: 0
Flags: HW
LayerCount: 2
Fore
SplineSet
324 293 m 1
 324 572 l 1
 1057 749 l 1
 324 921 l 1
 324 1198 l 1
 1484 868 l 1
 1484 630 l 1
 324 293 l 1
331 0 m 1
 331 185 l 1
 1478 185 l 1
 1478 0 l 1
 331 0 l 1
EndSplineSet
EndChar

StartChar: guillemotleft
Encoding: 106 171 205
Width: 1102
VWidth: 0
Flags: HW
LayerCount: 2
Fore
SplineSet
590 136 m 1
 211 516 l 1
 211 684 l 1
 590 1057 l 1
 590 777 l 1
 407 599 l 1
 407 599 630 390 590 423 c 1
 590 136 l 1
970 136 m 1
 589 516 l 1
 589 684 l 1
 970 1057 l 1
 970 777 l 1
 787 599 l 1
 787 599 1010 390 970 423 c 1
 970 136 l 1
EndSplineSet
EndChar

StartChar: guillemotright
Encoding: 119 187 206
Width: 1102
VWidth: 0
Flags: HW
LayerCount: 2
Fore
SplineSet
207 136 m 1
 207 415 l 1
 392 594 l 1
 392 594 167 800 207 767 c 1
 207 1057 l 1
 587 674 l 1
 587 509 l 1
 207 136 l 1
586 136 m 1
 586 415 l 1
 771 594 l 1
 771 594 546 800 586 767 c 1
 586 1057 l 1
 967 674 l 1
 967 509 l 1
 586 136 l 1
EndSplineSet
EndChar

StartChar: guilsinglleft
Encoding: 367 8249 207
Width: 881
VWidth: 0
Flags: HW
LayerCount: 2
Fore
SplineSet
734 136 m 1
 734 136 332 454 229 530 c 1
 229 655 l 1
 331 740 734 1057 734 1057 c 1
 734 777 l 1
 505 597 l 1
 582 538 658 483 734 423 c 1
 734 136 l 1
EndSplineSet
EndChar

StartChar: guilsinglright
Encoding: 368 8250 208
Width: 881
VWidth: 0
Flags: HW
LayerCount: 2
Fore
SplineSet
223 136 m 1
 223 415 l 1
 448 598 l 1
 371 657 299 707 223 767 c 1
 223 1057 l 1
 223 1057 624 736 727 660 c 1
 727 537 l 1
 625 451 223 136 223 136 c 1
EndSplineSet
EndChar

StartChar: h
Encoding: 72 104 209
Width: 1276
VWidth: 0
Flags: HW
PickledData: "(dp1
S'com.typemytype.robofont.layerData'
p2
(dp3
s."
LayerCount: 2
Fore
SplineSet
141 0 m 1
 141 1481 l 1
 529 1481 l 1
 529 877 l 1
 554 929 641 1060 815 1060 c 0
 1034 1060 1162 921 1162 675 c 2
 1162 0 l 1
 774 0 l 1
 774 506 l 2
 774 661 769 741 643 741 c 0
 582 741 529 677 529 571 c 2
 529 0 l 1
 141 0 l 1
EndSplineSet
EndChar

StartChar: hbar
Encoding: 221 295 210
Width: 1247
VWidth: 0
Flags: HW
LayerCount: 2
Fore
SplineSet
198 1552 m 1
 488 1897 l 1
 764 1897 l 1
 1055 1552 l 1
 757 1552 l 1
 626 1716 l 1
 486 1552 l 1
 198 1552 l 1
124 0 m 1
 124 1411 l 1
 512 1411 l 1
 512 877 l 1
 537 929 624 1059 798 1059 c 0
 1017 1059 1145 921 1145 675 c 2
 1145 0 l 1
 757 0 l 1
 757 506 l 2
 757 661 752 741 626 741 c 0
 565 741 512 677 512 571 c 2
 512 0 l 1
 124 0 l 1
EndSplineSet
EndChar

StartChar: hungarumlaut
Encoding: 345 733 212
Width: 900
VWidth: 0
Flags: HW
LayerCount: 2
Fore
SplineSet
101 1186 m 1
 310 1534 l 1
 696 1534 l 1
 379 1186 l 1
 101 1186 l 1
617 1186 m 1
 818 1534 l 1
 1197 1534 l 1
 893 1186 l 1
 617 1186 l 1
EndSplineSet
EndChar

StartChar: hyphen
Encoding: 13 45 213
Width: 845
VWidth: 0
Flags: HW
LayerCount: 2
Fore
SplineSet
98 429 m 1
 98 758 l 1
 749 758 l 1
 749 429 l 1
 98 429 l 1
EndSplineSet
EndChar

StartChar: i
Encoding: 73 105 214
Width: 716
VWidth: 0
Flags: HW
PickledData: "(dp1
S'com.typemytype.robofont.layerData'
p2
(dp3
s."
LayerCount: 2
Fore
SplineSet
170 0 m 1
 170 1038 l 1
 558 1038 l 1
 558 0 l 1
 170 0 l 1
363 1204 m 0
 214 1204 141 1284 141 1391 c 0
 141 1496 215 1579 363 1579 c 0
 512 1579 586 1495 586 1389 c 0
 586 1282 511 1204 363 1204 c 0
EndSplineSet
EndChar

StartChar: infinity
Encoding: 394 8734 222
Width: 1497
VWidth: 0
Flags: HW
LayerCount: 2
Fore
SplineSet
1100 205 m 0
 966 205 853 274 751 432 c 1
 656 290 549 211 406 211 c 0
 215 211 71 353 71 564 c 0
 71 759 218 911 408 911 c 0
 552 911 661 828 753 684 c 1
 844 816 954 907 1103 907 c 0
 1298 906 1437 765 1437 557 c 0
 1437 356 1284 205 1100 205 c 0
426 378 m 0
 520 378 597 449 668 557 c 1
 596 672 518 747 422 747 c 0
 319 747 249 664 249 559 c 0
 249 454 324 378 426 378 c 0
1083 372 m 0
 1185 372 1254 457 1254 554 c 0
 1254 662 1183 741 1081 741 c 0
 987 741 905 659 839 557 c 1
 922 430 994 372 1083 372 c 0
EndSplineSet
EndChar

StartChar: integral
Encoding: 373 8747 223
Width: 1130
VWidth: 0
Flags: HW
LayerCount: 2
Fore
SplineSet
355 -380 m 0
 298 -380 147 -350 112 -337 c 1
 153 -157 l 1
 137 -150 217 -170 248 -170 c 0
 334 -170 390 -143 390 36 c 2
 390 1041 l 2
 390 1311 556 1461 782 1461 c 0
 839 1461 986 1440 1019 1430 c 1
 982 1243 l 1
 997 1236 915 1254 884 1254 c 0
 760 1254 759 1113 759 1019 c 2
 759 53 l 2
 759 -226 612 -380 355 -380 c 0
EndSplineSet
EndChar

StartChar: j
Encoding: 74 106 226
Width: 775
VWidth: 0
Flags: HW
PickledData: "(dp1
S'com.typemytype.robofont.layerData'
p2
(dp3
s."
LayerCount: 2
Fore
SplineSet
182 -405 m 0
 79 -405 -27 -391 -59 -388 c 1
 -59 -113 l 1
 -59 -113 22 -119 53 -119 c 0
 155 -119 221 -83 221 122 c 2
 221 1038 l 1
 608 1038 l 1
 608 -81 l 2
 608 -301 413 -405 182 -405 c 0
433 1204 m 0
 284 1204 211 1284 211 1391 c 0
 211 1496 285 1579 433 1579 c 0
 582 1579 656 1495 656 1389 c 0
 656 1282 581 1204 433 1204 c 0
EndSplineSet
EndChar

StartChar: k
Encoding: 75 107 228
Width: 1265
VWidth: 0
Flags: HW
PickledData: "(dp1
S'com.typemytype.robofont.layerData'
p2
(dp3
s."
LayerCount: 2
Fore
SplineSet
141 0 m 1
 141 1481 l 1
 529 1481 l 1
 529 655 l 1
 799 1038 l 1
 1223 1038 l 1
 1223 994 l 1
 912 597 l 1
 1230 87 l 1
 1230 0 l 1
 821 0 l 1
 596 445 l 1
 529 355 l 1
 529 0 l 1
 141 0 l 1
EndSplineSet
EndChar

StartChar: kgreenlandic
Encoding: 238 312 230
Width: 1239
VWidth: 0
Flags: HW
LayerCount: 2
Fore
SplineSet
121 0 m 1
 121 1038 l 1
 513 1038 l 1
 513 630 l 1
 779 1038 l 1
 1203 1038 l 1
 1203 994 l 1
 912 596 l 1
 1230 87 l 1
 1230 0 l 1
 801 0 l 1
 580 423 l 1
 513 330 l 1
 513 0 l 1
 121 0 l 1
EndSplineSet
EndChar

StartChar: l
Encoding: 76 108 231
Width: 722
VWidth: 0
Flags: HW
PickledData: "(dp1
S'com.typemytype.robofont.layerData'
p2
(dp3
s."
LayerCount: 2
Fore
SplineSet
561 -5 m 2
 166 -5 141 155 141 352 c 2
 141 1481 l 1
 528 1481 l 1
 528 377 l 2
 528 313 554 247 649 247 c 1
 649 -5 l 1
 561 -5 l 2
EndSplineSet
EndChar

StartChar: less
Encoding: 28 60 236
Width: 1266
VWidth: 0
Flags: HW
LayerCount: 2
Fore
SplineSet
1193 -16 m 1
 70 472 l 1
 70 681 l 1
 1193 1166 l 1
 1193 880 l 1
 472 576 l 1
 1193 265 l 1
 1193 -16 l 1
EndSplineSet
EndChar

StartChar: lessequal
Encoding: 395 8804 237
Width: 1723
VWidth: 0
Flags: HW
LayerCount: 2
Fore
SplineSet
1464 293 m 1
 323 631 l 1
 323 869 l 1
 1464 1198 l 1
 1464 921 l 1
 743 748 l 1
 1464 572 l 1
 1464 293 l 1
331 0 m 1
 331 185 l 1
 1457 185 l 1
 1457 0 l 1
 331 0 l 1
EndSplineSet
EndChar

StartChar: logicalnot
Encoding: 107 172 238
Width: 1569
VWidth: 0
Flags: HW
LayerCount: 2
Fore
SplineSet
1119 99 m 1
 1119 547 l 1
 187 547 l 1
 187 782 l 1
 1380 782 l 1
 1380 99 l 1
 1119 99 l 1
EndSplineSet
EndChar

StartChar: lozenge
Encoding: 396 9674 239
Width: 1173
VWidth: 0
Flags: HW
LayerCount: 2
Fore
SplineSet
446 -30 m 1
 75 672 l 1
 450 1378 l 1
 722 1378 l 1
 1098 672 l 1
 718 -30 l 1
 446 -30 l 1
586 177 m 1
 837 671 l 1
 589 1168 l 1
 337 674 l 1
 586 177 l 1
EndSplineSet
EndChar

StartChar: lslash
Encoding: 245 322 240
Width: 650
VWidth: 0
Flags: HW
LayerCount: 2
Fore
SplineSet
534 3 m 2
 139 3 123 163 123 360 c 2
 123 544 l 1
 0 475 l 1
 0 667 l 1
 123 737 l 1
 123 1438 l 1
 511 1438 l 1
 510 966 l 1
 635 1037 l 1
 635 842 l 1
 510 774 l 1
 510 385 l 2
 510 365 481 255 617 255 c 1
 617 3 l 1
 534 3 l 2
EndSplineSet
EndChar

StartChar: m
Encoding: 77 109 241
Width: 1908
VWidth: 0
Flags: HW
PickledData: "(dp1
S'com.typemytype.robofont.layerData'
p2
(dp3
s."
LayerCount: 2
Fore
SplineSet
141 0 m 1
 141 1038 l 1
 529 1038 l 1
 529 850 l 1
 605 983 721 1060 849 1060 c 0
 964 1060 1073 1002 1121 852 c 1
 1188 1004 1335 1060 1458 1060 c 0
 1640 1060 1794 948 1794 682 c 2
 1794 0 l 1
 1406 0 l 1
 1406 507 l 2
 1406 696 1396 756 1271 756 c 0
 1244 756 1161 727 1161 662 c 2
 1161 0 l 1
 774 0 l 1
 774 532 l 2
 774 700 754 756 641 756 c 0
 594 756 529 717 529 662 c 2
 529 0 l 1
 141 0 l 1
EndSplineSet
EndChar

StartChar: macron
Encoding: 110 175 242
Width: 318
VWidth: 0
Flags: HW
LayerCount: 2
Fore
SplineSet
-123 1111 m 1
 -123 1343 l 1
 439 1343 l 1
 439 1111 l 1
 -123 1111 l 1
EndSplineSet
EndChar

StartChar: minus
Encoding: 401 8722 243
Width: 1159
VWidth: 0
Flags: HW
LayerCount: 2
Fore
SplineSet
90 371 m 1
 90 660 l 1
 1076 660 l 1
 1076 371 l 1
 90 371 l 1
EndSplineSet
EndChar

StartChar: mu
Encoding: 65536 956 244
Width: 1289
VWidth: 0
Flags: HW
PickledData: "(dp1
S'com.typemytype.robofont.layerData'
p2
(dp3
s."
LayerCount: 2
Fore
SplineSet
456 -24 m 0
 288 -24 114 93 114 339 c 2
 114 1038 l 1
 517 1038 l 1
 517 515 l 2
 517 343 538 263 656 263 c 0
 691 263 761 298 761 357 c 2
 761 1038 l 1
 1148 1038 l 1
 1148 0 l 1
 761 0 l 1
 761 171 l 1
 698 28 571 -24 456 -24 c 0
EndSplineSet
EndChar

StartChar: multiply
Encoding: 147 215 245
Width: 1206
VWidth: 0
Flags: HW
LayerCount: 2
Fore
SplineSet
275 6 m 1
 132 149 l 1
 458 477 l 1
 132 802 l 1
 280 947 l 1
 603 622 l 1
 926 947 l 1
 1074 802 l 1
 748 477 l 1
 1074 149 l 1
 931 6 l 1
 603 333 l 1
 275 6 l 1
EndSplineSet
EndChar

StartChar: n
Encoding: 78 110 246
Width: 1279
VWidth: 0
Flags: HW
PickledData: "(dp1
S'com.typemytype.robofont.layerData'
p2
(dp3
s."
LayerCount: 2
Fore
SplineSet
141 0 m 1
 141 1038 l 1
 529 1038 l 1
 529 835 l 1
 570 942 694 1060 839 1060 c 0
 989 1060 1165 947 1165 701 c 2
 1165 0 l 1
 777 0 l 1
 777 521 l 2
 777 693 753 756 638 756 c 0
 561 756 529 683 529 638 c 2
 529 0 l 1
 141 0 l 1
EndSplineSet
EndChar

StartChar: nine
Encoding: 25 57 250
Width: 1262
VWidth: 0
Flags: HW
LayerCount: 2
Fore
SplineSet
156 265 m 1
 268 256 582 286 648 537 c 1
 558 492 469 494 430 494 c 0
 298 494 43 575 43 967 c 0
 43 1292 271 1505 612 1505 c 0
 963 1505 1182 1292 1182 859 c 1
 1173 325 911 0 221 2 c 1
 194 119 186 160 156 265 c 1
632 796 m 1
 681 795 734 857 734 954 c 0
 734 1138 702 1202 615 1202 c 0
 608 1202 496 1194 496 1006 c 0
 496 812 555 796 632 796 c 1
EndSplineSet
EndChar

StartChar: notequal
Encoding: 397 8800 251
Width: 1372
VWidth: 0
Flags: HW
LayerCount: 2
Fore
SplineSet
328 52 m 1
 445 273 l 1
 234 273 l 1
 234 438 l 1
 527 438 l 1
 645 666 l 1
 234 666 l 1
 234 833 l 1
 729 833 l 1
 852 1075 l 1
 1045 1063 l 1
 925 833 l 1
 1142 833 l 1
 1142 666 l 1
 842 666 l 1
 722 438 l 1
 1142 438 l 1
 1142 273 l 1
 641 273 l 1
 520 39 l 1
 328 52 l 1
EndSplineSet
EndChar

StartChar: numbersign
Encoding: 3 35 253
Width: 1610
VWidth: 0
Flags: HW
LayerCount: 2
Fore
SplineSet
246 -23 m 1
 322 337 l 1
 89 337 l 1
 89 611 l 1
 382 611 l 1
 444 861 l 1
 202 861 l 1
 202 1131 l 1
 505 1131 l 1
 584 1507 l 1
 874 1507 l 1
 798 1131 l 1
 1010 1131 l 1
 1089 1507 l 1
 1380 1507 l 1
 1300 1131 l 1
 1526 1131 l 1
 1526 861 l 1
 1236 861 l 1
 1177 611 l 1
 1409 611 l 1
 1409 337 l 1
 1118 337 l 1
 1039 -23 l 1
 752 -23 l 1
 828 337 l 1
 612 337 l 1
 535 -23 l 1
 246 -23 l 1
673 609 m 1
 890 609 l 1
 950 863 l 1
 733 863 l 1
 673 609 l 1
EndSplineSet
EndChar

StartChar: o
Encoding: 79 111 254
Width: 1302
VWidth: 0
Flags: HW
PickledData: "(dp1
S'com.typemytype.robofont.layerData'
p2
(dp3
s."
LayerCount: 2
Fore
SplineSet
655 248 m 0
 743 248 816 303 816 516 c 0
 816 758 723 787 651 787 c 0
 577 787 485 771 485 515 c 0
 485 264 572 248 655 248 c 0
651 -24 m 0
 261 -24 102 180 102 517 c 0
 102 855 258 1059 651 1059 c 0
 1037 1059 1200 853 1200 516 c 0
 1200 181 1037 -24 651 -24 c 0
EndSplineSet
EndChar

StartChar: oe
Encoding: 259 339 259
Width: 1932
VWidth: 0
Flags: HW
LayerCount: 2
Fore
SplineSet
607 -28 m 0
 219 -28 80 209 80 519 c 0
 80 823 190 1058 615 1058 c 0
 746 1058 902 1014 988 908 c 1
 1068 1006 1239 1061 1365 1061 c 0
 1642 1061 1859 917 1859 610 c 2
 1859 443 l 1
 1176 443 l 1
 1195 277 1320 240 1453 240 c 0
 1530 240 1700 286 1746 322 c 1
 1793 322 l 1
 1838 86 l 1
 1757 30 1635 -25 1415 -25 c 0
 1241 -25 1058 32 975 172 c 1
 924 94 835 -28 607 -28 c 0
622 250 m 0
 740 250 766 350 766 518 c 0
 766 668 740 789 621 789 c 0
 520 789 475 729 475 517 c 0
 475 334 496 250 622 250 c 0
1173 649 m 1
 1524 649 l 1
 1519 781 1444 819 1349 819 c 0
 1244 819 1173 750 1173 649 c 1
EndSplineSet
EndChar

StartChar: ogonek
Encoding: 343 731 260
Width: 1003
VWidth: 0
Flags: HW
LayerCount: 2
Fore
SplineSet
574 -410 m 1
 453 -410 369 -338 353 -235 c 1
 343 -133 387 -54 435 5 c 1
 583 5 l 1
 547 -40 524 -93 520 -141 c 1
 517 -224 561 -274 638 -274 c 0
 694 -274 736 -257 757 -247 c 1
 767 -378 l 1
 703 -401 636 -415 574 -410 c 1
EndSplineSet
EndChar

StartChar: one
Encoding: 17 49 264
Width: 1127
VWidth: 0
Flags: HW
LayerCount: 2
Fore
SplineSet
133 0 m 1
 133 324 l 1
 390 324 l 1
 390 1051 l 1
 145 1022 l 1
 145 1292 l 1
 334 1301 416 1338 442 1483 c 1
 617 1481 655 1484 830 1483 c 1
 830 324 l 1
 1072 324 l 1
 1072 0 l 1
 133 0 l 1
EndSplineSet
EndChar

StartChar: onehalf
Encoding: 121 189 265
Width: 1677
VWidth: 0
Flags: HW
LayerCount: 2
Fore
SplineSet
381 0 m 1
 1174 1430 l 1
 1302 1430 l 1
 508 0 l 1
 381 0 l 1
1017 0 m 1
 1017 147 l 1
 1088 196 1365 413 1365 540 c 0
 1365 621 1306 632 1277 632 c 0
 1194 632 1112 594 1083 582 c 1
 1030 759 l 1
 1075 795 1203 836 1304 836 c 0
 1511 836 1626 732 1626 572 c 0
 1626 406 1414 216 1348 187 c 1
 1666 187 l 1
 1666 0 l 1
 1017 0 l 1
147 557 m 1
 147 737 l 1
 258 737 l 1
 258 1144 l 1
 92 1125 l 1
 92 1275 l 1
 198 1282 273 1303 286 1381 c 1
 502 1381 l 1
 502 737 l 1
 607 737 l 1
 607 557 l 1
 147 557 l 1
EndSplineSet
EndChar

StartChar: onequarter
Encoding: 120 188 266
Width: 1620
VWidth: 0
Flags: HW
LayerCount: 2
Fore
SplineSet
1178 0 m 1
 1178 122 l 1
 862 122 l 1
 862 263 l 1
 1107 819 l 1
 1436 819 l 1
 1436 263 l 1
 1512 263 l 1
 1512 122 l 1
 1436 122 l 1
 1436 0 l 1
 1178 0 l 1
370 0 m 1
 1163 1430 l 1
 1291 1430 l 1
 497 0 l 1
 370 0 l 1
1049 263 m 1
 1178 263 l 1
 1178 602 l 1
 1049 263 l 1
152 557 m 1
 152 737 l 1
 263 737 l 1
 263 1144 l 1
 97 1125 l 1
 97 1275 l 1
 203 1282 278 1303 291 1381 c 1
 507 1381 l 1
 507 737 l 1
 612 737 l 1
 612 557 l 1
 152 557 l 1
EndSplineSet
EndChar

StartChar: uni00B9
Encoding: 65537 185 267
Width: 803
VWidth: 0
Flags: HW
PickledData: "(dp1
S'com.typemytype.robofont.layerData'
p2
(dp3
s."
LayerCount: 2
Fore
SplineSet
182 557 m 1
 182 737 l 1
 293 737 l 1
 293 1144 l 1
 127 1125 l 1
 127 1275 l 1
 233 1282 308 1303 321 1381 c 1
 537 1381 l 1
 537 737 l 1
 642 737 l 1
 642 557 l 1
 182 557 l 1
EndSplineSet
EndChar

StartChar: ordfeminine
Encoding: 105 170 268
Width: 916
VWidth: 0
Flags: HW
LayerCount: 2
Fore
SplineSet
265 632 m 0
 128 632 5 698 5 858 c 0
 5 1122 273 1100 513 1143 c 1
 513 1201 435 1217 307 1217 c 0
 228 1217 144 1183 123 1168 c 1
 87 1358 l 1
 124 1390 251 1413 374 1413 c 0
 649 1413 832 1366 832 1176 c 2
 832 646 l 1
 513 646 l 1
 513 714 l 1
 511 714 l 1
 453 659 355 632 265 632 c 0
424 819 m 0
 453 819 494 825 513 860 c 1
 513 961 l 1
 447 950 325 970 325 885 c 0
 325 826 386 819 424 819 c 0
123 1168 m 1
 124 1161 l 1
 116 1161 116 1163 123 1168 c 1
EndSplineSet
EndChar

StartChar: ordmasculine
Encoding: 118 186 269
Width: 946
VWidth: 0
Flags: HW
LayerCount: 2
Fore
SplineSet
499 831 m 0
 584 831 620 897 620 1033 c 0
 620 1188 576 1235 492 1235 c 0
 428 1235 362 1219 362 1034 c 0
 362 879 410 831 499 831 c 0
490 641 m 0
 221 641 63 782 63 1037 c 0
 63 1296 227 1430 492 1430 c 0
 759 1430 922 1293 922 1034 c 0
 922 779 758 641 490 641 c 0
EndSplineSet
EndChar

StartChar: oslash
Encoding: 180 248 270
Width: 1165
VWidth: 0
Flags: HW
LayerCount: 2
Fore
SplineSet
478 354 m 1
 718 761 l 1
 690 782 658 787 629 787 c 0
 555 787 459 771 459 515 c 0
 459 444 466 392 478 354 c 1
633 249 m 1
 721 249 794 303 794 516 c 0
 794 581 787 631 776 669 c 1
 538 269 l 1
 567 251 627 250 633 249 c 1
271 -182 m 1
 163 -182 l 1
 298 47 l 1
 146 136 80 300 80 517 c 0
 80 855 236 1059 629 1059 c 0
 723 1059 804 1046 872 1023 c 1
 983 1212 l 1
 1098 1212 l 1
 962 982 l 1
 1111 893 1178 732 1178 516 c 0
 1178 181 1015 -28 629 -28 c 0
 534 -28 453 -16 384 8 c 1
 271 -182 l 1
EndSplineSet
EndChar

StartChar: p
Encoding: 80 112 272
Width: 1350
VWidth: 0
Flags: HW
PickledData: "(dp1
S'com.typemytype.robofont.layerData'
p2
(dp3
s."
LayerCount: 2
Fore
SplineSet
141 -392 m 1
 141 1038 l 1
 529 1038 l 1
 529 867 l 1
 594 991 686 1059 823 1059 c 0
 1103 1059 1248 850 1248 530 c 0
 1248 196.9 1076 -24 794 -24 c 0
 692 -24 626 -11 529 43 c 1
 529 -392 l 1
 141 -392 l 1
846 527 m 0
 846 733.376 766.266 786.812 686.774 786.812 c 0
 607.768 786.812 529 734 529 734 c 1
 529 256 l 1
 568.50390625 250.708984375 603.784179688 247.794921875 635.125976562 247.794921875 c 0
 786.454101562 247.794921875 846 330.721 846 527 c 0
EndSplineSet
EndChar

StartChar: paragraph
Encoding: 115 182 273
Width: 1319
VWidth: 0
Flags: HW
LayerCount: 2
Fore
SplineSet
589 -278 m 1
 589 626 l 1
 213 635 49 809 49 1055 c 0
 49 1295 231 1481 603 1481 c 2
 1141 1481 l 1
 1141 -278 l 1
 928 -278 l 1
 928 1291 l 1
 815 1291 l 1
 815 -278 l 1
 589 -278 l 1
EndSplineSet
EndChar

StartChar: parenleft
Encoding: 8 40 274
Width: 890
VWidth: 0
Flags: HW
LayerCount: 2
Fore
SplineSet
459 -349 m 1
 232 -89 74 226 74 611 c 0
 74 1040 228 1313 459 1573 c 1
 831 1573 l 1
 826 1552 813 1531 808 1510 c 1
 633 1306 451 1005 451 611 c 0
 451 235 613 -75 808 -287 c 1
 813 -306 826 -329 831 -349 c 1
 459 -349 l 1
EndSplineSet
EndChar

StartChar: parenright
Encoding: 9 41 275
Width: 889
VWidth: 0
Flags: HW
LayerCount: 2
Fore
SplineSet
63 -349 m 1
 68 -329 81 -307 84 -287 c 1
 274 -77 444 225 444 611 c 0
 444 1003 263 1306 84 1510 c 1
 81 1533 68 1552 63 1573 c 1
 433 1573 l 1
 667 1312 818 1028 818 611 c 0
 818 221 664 -87 433 -349 c 1
 63 -349 l 1
EndSplineSet
EndChar

StartChar: percent
Encoding: 5 37 276
Width: 2267
VWidth: 0
Flags: HW
LayerCount: 2
Fore
SplineSet
530 868 m 0
 625 868 680 990 680 1107 c 0
 680 1217 630 1327 531 1327 c 0
 434 1327 380 1207 380 1090 c 0
 380 978 429 868 530 868 c 0
531 662 m 0
 264 662 128 874 128 1093 c 0
 128 1312 262 1529 530 1532 c 1
 798 1532 926 1323 926 1105 c 0
 926 883 789 662 531 662 c 0
599 0 m 1
 1401 1528 l 1
 1665 1528 l 1
 863 0 l 1
 599 0 l 1
1734 205 m 0
 1831 205 1881 321 1881 438 c 0
 1881 551 1831 666 1732 666 c 1
 1639 663 1588 541 1588 424 c 0
 1588 314 1635 205 1734 205 c 0
1734 -3 m 0
 1467 -3 1333 211 1333 431 c 0
 1333 649 1467 864 1734 867 c 1
 2001 867 2130 660 2130 443 c 0
 2130 220 1992 -3 1734 -3 c 0
EndSplineSet
EndChar

StartChar: period
Encoding: 14 46 277
Width: 776
VWidth: 0
Flags: HW
LayerCount: 2
Fore
SplineSet
398 -29 m 0
 276 -29 172 76 172 198 c 0
 172 321 276 424 398 424 c 0
 523 424 627 321 627 198 c 0
 627 76 523 -29 398 -29 c 0
EndSplineSet
EndChar

StartChar: periodcentered
Encoding: 116 183 278
Width: 776
VWidth: 0
Flags: HW
LayerCount: 2
Fore
SplineSet
398 389 m 0
 276 389 172 494 172 616 c 0
 172 740 276 842 398 842 c 0
 523 842 627 740 627 616 c 0
 627 494 523 389 398 389 c 0
EndSplineSet
EndChar

StartChar: perthousand
Encoding: 398 8240 279
Width: 2748
VWidth: 0
Flags: HW
LayerCount: 2
Fore
SplineSet
487 859 m 0
 567 859 584 915 586 1054 c 1
 586 1165 573 1237 487 1237 c 0
 396 1237 389 1162 389 1040 c 0
 389 934 394 859 487 859 c 0
487 688 m 0
 281 688 161 795 161 1022 c 0
 161 1284 268 1402 487 1402 c 0
 692 1402 808 1297 808 1074 c 0
 808 812 707 688 487 688 c 0
487 0 m 1
 1219 1399 l 1
 1465 1399 l 1
 731 0 l 1
 487 0 l 1
1479 167 m 0
 1559 167 1577 223 1577 362 c 0
 1577 473 1566 542 1479 542 c 0
 1390 542 1380 470 1380 348 c 0
 1380 243 1386 167 1479 167 c 0
1479 -3 m 0
 1273 -3 1155 101 1155 328 c 0
 1155 590 1260 709 1479 709 c 0
 1684 709 1800 601 1800 379 c 0
 1800 117 1701 -3 1479 -3 c 0
2255 167 m 0
 2335 167 2351 223 2353 362 c 1
 2353 473 2342 542 2255 542 c 0
 2164 542 2158 470 2158 348 c 0
 2158 242 2162 167 2255 167 c 0
2255 -3 m 0
 2049 -3 1932 101 1932 328 c 0
 1932 590 2036 709 2255 709 c 0
 2460 709 2577 601 2577 379 c 0
 2577 117 2477 -3 2255 -3 c 0
EndSplineSet
EndChar

StartChar: plus
Encoding: 11 43 280
Width: 1634
VWidth: 0
Flags: HW
LayerCount: 2
Fore
SplineSet
682 14 m 1
 682 441 l 1
 188 441 l 1
 188 708 l 1
 682 708 l 1
 682 1154 l 1
 959 1154 l 1
 959 708 l 1
 1451 708 l 1
 1451 441 l 1
 959 441 l 1
 959 14 l 1
 682 14 l 1
EndSplineSet
EndChar

StartChar: plusminus
Encoding: 112 177 281
Width: 1679
VWidth: 0
Flags: HW
LayerCount: 2
Fore
SplineSet
636 280 m 1
 636 619 l 1
 240 619 l 1
 240 793 l 1
 636 793 l 1
 636 1133 l 1
 819 1133 l 1
 819 793 l 1
 1220 793 l 1
 1220 619 l 1
 819 619 l 1
 819 280 l 1
 636 280 l 1
238 0 m 1
 238 178 l 1
 1217 178 l 1
 1217 0 l 1
 238 0 l 1
EndSplineSet
EndChar

StartChar: product
Encoding: 372 8719 282
Width: 1562
VWidth: 0
Flags: HW
LayerCount: 2
Fore
SplineSet
189 0 m 1
 189 1481 l 1
 1392 1481 l 1
 1392 0 l 1
 1036 0 l 1
 1036 1211 l 1
 544 1211 l 1
 544 0 l 1
 189 0 l 1
EndSplineSet
EndChar

StartChar: q
Encoding: 81 113 283
Width: 1348
VWidth: 0
Flags: HW
PickledData: "(dp1
S'com.typemytype.robofont.layerData'
p2
(dp3
s."
LayerCount: 2
Fore
SplineSet
822 -392 m 1
 822 72 l 1
 755 10 671 -24 567 -24 c 0
 276 -24 102 200 102 540 c 0
 102 846 198 1059 508 1059 c 0
 602 1059 757 1009 822 907 c 1
 822 1038 l 1
 1210 1038 l 1
 1210 -392 l 1
 822 -392 l 1
505 527 m 0
 505 331 565 248 716 248 c 0
 747 248 782 251 822 256 c 1
 822 734 l 1
 822 734 743 787 664 787 c 0
 585 787 505 733 505 527 c 0
EndSplineSet
EndChar

StartChar: question
Encoding: 31 63 284
Width: 1256
VWidth: 0
Flags: HW
LayerCount: 2
Fore
SplineSet
709 595 m 1
 504 595 l 1
 666 680 760 843 760 972 c 0
 760 1078 689 1162 524 1162 c 0
 393 1162 247 1080 199 1025 c 1
 199 1370 l 1
 261 1406 408 1505 596 1505 c 0
 970 1505 1121 1321 1121 1117 c 0
 1121 904 957 668 709 595 c 1
590 -32 m 0
 454 -32 343 79 343 214 c 0
 343 348 454 459 590 459 c 0
 724 459 835 348 835 214 c 0
 835 79 724 -32 590 -32 c 0
EndSplineSet
EndChar

StartChar: quotedbl
Encoding: 2 34 286
Width: 1023
VWidth: 0
Flags: HW
LayerCount: 2
Fore
SplineSet
189 979 m 1
 141 1481 l 1
 491 1481 l 1
 444 979 l 1
 189 979 l 1
586 979 m 1
 539 1481 l 1
 887 1481 l 1
 841 979 l 1
 586 979 l 1
EndSplineSet
EndChar

StartChar: quotedblbase
Encoding: 364 8222 287
Width: 925
VWidth: 0
Flags: HW
LayerCount: 2
Fore
SplineSet
94 -245 m 1
 195 243 l 1
 522 243 l 1
 271 -245 l 1
 94 -245 l 1
466 -245 m 1
 566 243 l 1
 894 243 l 1
 644 -245 l 1
 466 -245 l 1
EndSplineSet
EndChar

StartChar: quotedblleft
Encoding: 362 8220 288
Width: 970
VWidth: 0
Flags: HW
LayerCount: 2
Fore
SplineSet
209 925 m 1
 17 1481 l 1
 379 1481 l 1
 487 925 l 1
 209 925 l 1
626 925 m 1
 433 1481 l 1
 795 1481 l 1
 902 925 l 1
 626 925 l 1
EndSplineSet
EndChar

StartChar: quotedblright
Encoding: 363 8221 289
Width: 968
VWidth: 0
Flags: HW
LayerCount: 2
Fore
SplineSet
122 990 m 1
 222 1481 l 1
 580 1481 l 1
 373 990 l 1
 122 990 l 1
552 990 m 1
 653 1481 l 1
 1010 1481 l 1
 802 990 l 1
 552 990 l 1
EndSplineSet
EndChar

StartChar: quoteleft
Encoding: 359 8216 290
Width: 603
VWidth: 0
Flags: HW
LayerCount: 2
Fore
SplineSet
209 925 m 1
 17 1481 l 1
 379 1481 l 1
 487 925 l 1
 209 925 l 1
EndSplineSet
EndChar

StartChar: quoteright
Encoding: 360 8217 291
Width: 603
VWidth: 0
Flags: HW
LayerCount: 2
Fore
SplineSet
122 990 m 1
 222 1481 l 1
 580 1481 l 1
 373 990 l 1
 122 990 l 1
EndSplineSet
EndChar

StartChar: quotesinglbase
Encoding: 361 8218 292
Width: 585
VWidth: 0
Flags: HW
LayerCount: 2
Fore
SplineSet
120 -245 m 1
 220 243 l 1
 559 243 l 1
 514 114 393 -245 393 -245 c 1
 120 -245 l 1
EndSplineSet
EndChar

StartChar: quotesingle
Encoding: 7 39 293
Width: 647
VWidth: 0
Flags: HW
LayerCount: 2
Fore
SplineSet
198 819 m 1
 153 1481 l 1
 497 1481 l 1
 458 819 l 1
 198 819 l 1
EndSplineSet
EndChar

StartChar: r
Encoding: 82 114 294
Width: 943
VWidth: 0
Flags: HW
PickledData: "(dp1
S'com.typemytype.robofont.layerData'
p2
(dp3
s."
LayerCount: 2
Fore
SplineSet
141 0 m 1
 141 1038 l 1
 529 1038 l 1
 529 904 l 1
 582.903876675 975.871835567 707.995330997 1039 827 1039 c 0
 863 1039 905 1028 932 1015 c 1
 873 679 l 1
 841 694 801 710 742 710 c 0
 682 710 575 695 529 633 c 1
 529 0 l 1
 141 0 l 1
EndSplineSet
EndChar

StartChar: registered
Encoding: 109 174 298
Width: 1898
VWidth: 0
Flags: HW
LayerCount: 2
Fore
SplineSet
634 254 m 1
 634 1172 l 1
 939 1172 l 2
 1112 1172 1308 1146 1308 907 c 0
 1308 774 1282 716 1143 660 c 1
 1370 298 l 1
 1370 254 l 1
 1183 254 l 1
 976 632 l 1
 811 632 l 1
 811 254 l 1
 634 254 l 1
811 776 m 1
 972 776 l 2
 1100 776 1137 817 1137 915 c 0
 1137 995 1063 1037 954 1037 c 2
 811 1037 l 1
 811 776 l 1
952 79 m 0
 1354 79 1608 348 1608 708 c 0
 1608 1070 1335 1329 952 1329 c 0
 557 1329 307 1052 307 702 c 0
 307 337 573 79 952 79 c 0
952 -111 m 0
 478 -111 86 207 86 702 c 0
 86 1172 459 1515 952 1515 c 0
 1431 1515 1815 1176 1815 702 c 0
 1815 232 1444 -111 952 -111 c 0
EndSplineSet
EndChar

StartChar: ring
Encoding: 342 730 299
Width: 565
VWidth: 0
Flags: HW
LayerCount: 2
Fore
SplineSet
277 235 m 0
 406 235 508 335 508 456 c 0
 508 575 405 677 277 677 c 0
 149 677 48 575 48 456 c 0
 48 332 151 235 277 235 c 0
277 118 m 0
 77 118 -82 269 -82 456 c 0
 -82 645 78 791 277 791 c 0
 478 791 638 644 638 456 c 0
 638 268 478 118 277 118 c 0
EndSplineSet
EndChar

StartChar: s
Encoding: 83 115 300
Width: 1136
VWidth: 0
Flags: HW
PickledData: "(dp1
S'com.typemytype.robofont.layerData'
p2
(dp3
s."
LayerCount: 2
Fore
SplineSet
576 -24 m 0
 419 -24 211 16 109 71 c 1
 152 337 l 1
 208 337 l 1
 266 289 370 229 523 229 c 0
 570 229 652 236 652 283 c 0
 652 351 536 354 397 388 c 1
 165 443 108 512 108 703 c 0
 108 904 309 1059 622 1059 c 0
 776 1059 901 1031 1012 977 c 1
 966 706 l 1
 922 706 l 1
 851 757 782 803 664 803 c 0
 570 803 516 768 516 734 c 0
 516 702 515 693 687 655 c 1
 967 591 1069 537 1069 339 c 0
 1069 130 912 -24 576 -24 c 0
EndSplineSet
EndChar

StartChar: section
Encoding: 102 167 306
Width: 1198
VWidth: 0
Flags: HW
LayerCount: 2
Fore
SplineSet
676 1173 m 0
 575 1173 506 1154 506 1102 c 0
 506 963 1082 1089 1082 721 c 0
 1082 638 1039 532 978 471 c 1
 1039 418 1082 362 1082 265 c 0
 1082 55 863 -99 526 -99 c 0
 369 -99 224 -60 122 -5 c 1
 161 237 l 1
 230 204 328 155 537 155 c 1
 587 156 663 163 663 222 c 0
 663 387 121 254 121 630 c 0
 121 703 146 786 197 849 c 1
 141 906 121 985 121 1084 c 0
 121 1284 338 1429 651 1429 c 0
 805 1429 935 1395 1024 1351 c 1
 974 1105 l 1
 922 1136 817 1173 676 1173 c 0
787 564 m 1
 787 566 811 598 811 654 c 0
 811 709 582 727 404 765 c 1
 383 750 372 707 372 681 c 0
 372 666 380 652 399 646 c 0
 479 620 600 609 787 564 c 1
EndSplineSet
EndChar

StartChar: semicolon
Encoding: 27 59 307
Width: 624
VWidth: 0
Flags: HW
LayerCount: 2
Fore
SplineSet
79 -241 m 1
 155 352 l 1
 551 352 l 1
 266 -241 l 1
 79 -241 l 1
307 593 m 0
 186 593 87 693 87 815 c 0
 87 937 186 1037 307 1037 c 0
 429 1037 531 937 531 815 c 0
 531 693 429 593 307 593 c 0
EndSplineSet
EndChar

StartChar: seven
Encoding: 23 55 308
Width: 1275
VWidth: 0
Flags: HW
LayerCount: 2
Fore
SplineSet
176 0 m 1
 721 1169 l 1
 310 1169 l 1
 310 1023 l 1
 77 1023 l 1
 77 1481 l 1
 1215 1481 l 1
 1215 1169 l 1
 693 0 l 1
 176 0 l 1
EndSplineSet
EndChar

StartChar: six
Encoding: 22 54 309
Width: 1272
VWidth: 0
Flags: HW
LayerCount: 2
Fore
SplineSet
659 -25 m 0
 315 -25 92 178 92 560 c 0
 92 1190 413 1432 1041 1482 c 1
 1112 1171 l 1
 869 1146 667 1133 599 927 c 1
 666 940 735 985 833 985 c 0
 1094 985 1222 828 1222 512 c 0
 1222 180 1000 -25 659 -25 c 0
640 258 m 0
 734 258 778 349 778 493 c 0
 778 661 711 695 637 695 c 1
 594 696 512 632 512 501 c 0
 512 370 538 258 640 258 c 0
EndSplineSet
EndChar

StartChar: slash
Encoding: 15 47 310
Width: 979
VWidth: 0
Flags: HW
LayerCount: 2
Fore
SplineSet
62 0 m 1
 620 1482 l 1
 915 1482 l 1
 355 0 l 1
 62 0 l 1
EndSplineSet
EndChar

StartChar: sterling
Encoding: 98 163 312
Width: 1259
VWidth: 0
Flags: HW
LayerCount: 2
Fore
SplineSet
124 -15 m 1
 124 296 l 1
 188 300 245 309 284 314 c 1
 295 340 298 376 298 413 c 0
 298 478 287 564 281 590 c 1
 135 590 l 1
 135 808 l 1
 259 808 l 1
 245 870 238 930 238 987 c 0
 238 1290 430 1505 752 1505 c 0
 901 1505 1073 1451 1130 1395 c 1
 1131 1064 l 1
 1062 1064 l 1
 998 1124 919 1162 847 1162 c 0
 743 1162 655 1087 655 933 c 0
 655 896 660 855 671 808 c 1
 1010 808 l 1
 1010 590 l 1
 689 590 l 1
 690 575 691 560 691 545 c 0
 691 467 651 372 599 314 c 1
 699 312 804 300 908 300 c 0
 991 300 1074 308 1153 333 c 1
 1201 16 l 1
 1128 -5 1050 -9 975 -9 c 0
 803 -9 608 12 422 12 c 0
 317 12 216 5 124 -15 c 1
EndSplineSet
EndChar

StartChar: t
Encoding: 84 116 313
Width: 927
VWidth: 0
Flags: HW
PickledData: "(dp1
S'com.typemytype.robofont.layerData'
p2
(dp3
s."
LayerCount: 2
Fore
SplineSet
583 -13 m 0
 334 -13 226 89 226 328 c 2
 226 808 l 1
 103 808 l 1
 103 1038 l 1
 226 1038 l 1
 226 1295 l 1
 614 1365 l 1
 614 1038 l 1
 834 1038 l 1
 834 808 l 1
 614 808 l 1
 614 376 l 2
 614 276.124967068 665.663472334 248.416554529 748.81767803 248.416554529 c 0
 774.42235229 248.416554529 803.01277246 251.043685452 834 255 c 1
 834 5 l 1
 769 -8 693 -13 583 -13 c 0
EndSplineSet
EndChar

StartChar: thorn
Encoding: 186 254 315
Width: 1217
VWidth: 0
Flags: HW
LayerCount: 2
Fore
SplineSet
123 -392 m 1
 123 1430 l 1
 513 1430 l 1
 513 867 l 1
 578 991 695 1061 832 1061 c 0
 1112 1061 1180 850 1180 530 c 0
 1180 228 1041 -20 759 -20 c 0
 657 -20 611 -11 513 43 c 1
 513 -392 l 1
 123 -392 l 1
582 260 m 0
 740 260 779 345 779 526 c 0
 779 684 767 759 630 759 c 0
 552 759 540 732 513 698 c 1
 513 264 l 1
 522 263 543 260 582 260 c 0
EndSplineSet
EndChar

StartChar: three
Encoding: 19 51 316
Width: 1249
VWidth: 0
Flags: HW
LayerCount: 2
Fore
SplineSet
586 -23 m 0
 357 -23 227 18 109 103 c 1
 109 488 l 1
 189 488 l 1
 189 488 270 324 483 324 c 0
 564 324 755 331 755 486 c 0
 755 596 704 632 574 632 c 2
 426 632 l 1
 426 899 l 1
 453 899 l 2
 582 899 706 897 706 1046 c 0
 706 1156 539 1161 527 1161 c 0
 288 1161 194 991 194 991 c 1
 109 991 l 1
 109 1366 l 1
 204 1432 418 1505 596 1505 c 0
 975 1505 1151 1317 1151 1103 c 0
 1151 917 1048 812 931 769 c 1
 1071 735 1205 622 1205 449 c 0
 1205 160 984 -23 586 -23 c 0
EndSplineSet
EndChar

StartChar: threequarters
Encoding: 122 190 317
Width: 1593
VWidth: 0
Flags: HW
LayerCount: 2
Fore
SplineSet
1151 0 m 1
 1151 122 l 1
 835 122 l 1
 835 263 l 1
 1080 819 l 1
 1409 819 l 1
 1409 263 l 1
 1484 263 l 1
 1484 122 l 1
 1409 122 l 1
 1409 0 l 1
 1151 0 l 1
342 0 m 1
 1135 1430 l 1
 1263 1430 l 1
 469 0 l 1
 342 0 l 1
1021 263 m 1
 1151 263 l 1
 1151 602 l 1
 1021 263 l 1
329 551 m 0
 204 551 132 572 65 619 c 1
 65 830 l 1
 99 830 l 1
 164 765 229 742 271 739 c 0
 318 736 423 741 423 849 c 0
 423 916 390 918 322 918 c 2
 239 918 l 1
 239 1065 l 1
 255 1065 l 2
 323 1065 396 1053 396 1132 c 0
 396 1198 306 1203 295 1203 c 0
 251 1203 189 1177 114 1106 c 1
 65 1106 l 1
 65 1315 l 1
 116 1351 235 1392 333 1392 c 0
 526 1392 628 1324 642 1201 c 1
 652 1079 597 1021 522 988 c 1
 593 967 667 923 667 824 c 0
 667 661 549 551 329 551 c 0
EndSplineSet
EndChar

StartChar: tilde
Encoding: 344 732 318
Width: 1304
VWidth: 0
Flags: HW
LayerCount: 2
Fore
SplineSet
906 186 m 0
 795 186 536 283 465 283 c 0
 425 283 393 281 393 186 c 1
 393 186 177 182 177 186 c 0
 177 436 260 555 407 555 c 0
 520 555 806 446 860 446 c 0
 904 446 908 471 908 555 c 1
 1129 555 l 1
 1124 269 1079 186 906 186 c 0
EndSplineSet
EndChar

StartChar: trademark
Encoding: 371 8482 319
Width: 1829
VWidth: 0
Flags: HW
LayerCount: 2
Fore
SplineSet
805 762 m 1
 805 1481 l 1
 1128 1481 l 1
 1275 1069 l 1
 1428 1481 l 1
 1735 1481 l 1
 1735 762 l 1
 1540 762 l 1
 1540 1293 l 1
 1524 1293 l 1
 1337 852 l 1
 1208 852 l 1
 1026 1298 l 1
 1001 1298 l 1
 1001 762 l 1
 805 762 l 1
267 762 m 1
 267 1304 l 1
 54 1304 l 1
 54 1481 l 1
 693 1481 l 1
 693 1304 l 1
 480 1304 l 1
 480 762 l 1
 267 762 l 1
EndSplineSet
EndChar

StartChar: two
Encoding: 18 50 320
Width: 1309
VWidth: 0
Flags: HW
LayerCount: 2
Fore
SplineSet
129 2 m 1
 129 265 l 1
 235 353 719 744 719 973 c 0
 719 1120 617 1137 574 1137 c 0
 433 1137 296 1070 244 1052 c 1
 153 1369 l 1
 230 1435 450 1505 620 1505 c 0
 977 1505 1180 1321 1180 1034 c 0
 1180 735 811 393 714 340 c 1
 1247 340 l 1
 1247 2 l 1
 129 2 l 1
EndSplineSet
EndChar

StartChar: u
Encoding: 85 117 321
Width: 1289
VWidth: 0
Flags: HW
PickledData: "(dp1
S'com.typemytype.robofont.layerData'
p2
(dp3
s."
LayerCount: 2
Fore
SplineSet
456 -24 m 0
 288 -24 114 93 114 339 c 2
 114 1038 l 1
 517 1038 l 1
 517 500 l 2
 517 328 538 248 656 248 c 0
 691 248 761 283 761 342 c 2
 761 1038 l 1
 1148 1038 l 1
 1148 0 l 1
 761 0 l 1
 761 171 l 1
 698 28 571 -24 456 -24 c 0
EndSplineSet
EndChar

StartChar: underscore
Encoding: 63 95 329
Width: 1477
VWidth: 0
Flags: HW
LayerCount: 2
Fore
SplineSet
-23 -201 m 1
 -23 0 l 1
 1503 0 l 1
 1503 -201 l 1
 -23 -201 l 1
EndSplineSet
EndChar

StartChar: uni00AD
Encoding: 108 173 331
Width: 800
VWidth: 0
Flags: HW
LayerCount: 2
Fore
SplineSet
110 438 m 1
 110 637 l 1
 693 637 l 1
 693 438 l 1
 110 438 l 1
EndSplineSet
EndChar

StartChar: uni00B2
Encoding: 113 178 332
Width: 1523
VWidth: 0
Flags: HW
LayerCount: 2
Fore
SplineSet
256 0 m 1
 1088 1430 l 1
 1215 1430 l 1
 383 0 l 1
 256 0 l 1
909 3 m 1
 909 150 l 1
 980 199 1257 416 1257 543 c 0
 1257 624 1198 635 1169 635 c 0
 1086 635 1004 597 975 585 c 1
 922 762 l 1
 967 798 1095 839 1196 839 c 0
 1403 839 1518 735 1518 575 c 0
 1518 409 1306 219 1240 190 c 1
 1558 190 l 1
 1558 3 l 1
 909 3 l 1
25 557 m 1
 25 737 l 1
 136 737 l 1
 136 1144 l 1
 -30 1125 l 1
 -30 1275 l 1
 76 1282 151 1303 164 1381 c 1
 380 1381 l 1
 380 737 l 1
 485 737 l 1
 485 557 l 1
 25 557 l 1
EndSplineSet
EndChar

StartChar: uni0237
Encoding: 337 567 373
Width: 740
VWidth: 0
Flags: HW
LayerCount: 2
Fore
SplineSet
162 -405 m 0
 59 -405 -47 -391 -79 -388 c 1
 -79 -113 l 1
 -79 -113 2 -119 33 -119 c 0
 135 -119 201 -83 201 122 c 2
 201 1038 l 1
 588 1038 l 1
 588 -81 l 2
 588 -301 393 -405 162 -405 c 0
EndSplineSet
EndChar

StartChar: uni02C9
Encoding: 402 713 374
Width: 316
VWidth: 0
Flags: HW
LayerCount: 2
Fore
SplineSet
-117 1167 m 1
 -117 1356 l 1
 438 1356 l 1
 438 1167 l 1
 -117 1167 l 1
EndSplineSet
EndChar

StartChar: uni0307
Encoding: 399 775 375
Width: 152
VWidth: 0
Flags: HW
LayerCount: 2
Fore
SplineSet
74 142 m 0
 -75 142 -148 228 -148 335 c 0
 -148 440 -74 529 74 529 c 0
 223 529 297 439 297 333 c 0
 297 226 222 142 74 142 c 0
EndSplineSet
EndChar

StartChar: uni030F
Encoding: 346 783 376
Width: 725
VWidth: 0
Flags: HW
LayerCount: 2
Fore
SplineSet
278 1137 m 1
 -14 1481 l 1
 231 1481 l 1
 433 1137 l 1
 278 1137 l 1
585 1137 m 1
 321 1481 l 1
 547 1481 l 1
 739 1137 l 1
 585 1137 l 1
EndSplineSet
EndChar

StartChar: uni0311
Encoding: 347 785 377
Width: 857
VWidth: 0
Flags: HW
LayerCount: 2
Fore
SplineSet
81 1147 m 1
 84 1361 219 1474 429 1474 c 0
 656 1474 773 1361 776 1147 c 1
 596 1147 l 1
 588 1241 552 1311 429 1311 c 0
 318 1311 272 1245 264 1147 c 1
 81 1147 l 1
EndSplineSet
EndChar

StartChar: uni0326
Encoding: 348 806 378
Width: 470
VWidth: 0
Flags: HW
LayerCount: 2
Fore
SplineSet
45 -235 m 1
 104 338 l 1
 439 338 l 1
 216 -235 l 1
 45 -235 l 1
EndSplineSet
EndChar

StartChar: uni2215
Encoding: 403 8725 379
Width: 1358
VWidth: 0
Flags: HW
LayerCount: 2
Fore
SplineSet
230 0 m 1
 787 1482 l 1
 1083 1482 l 1
 522 0 l 1
 230 0 l 1
EndSplineSet
EndChar

StartChar: uni2219
Encoding: 404 8729 380
Width: 152
VWidth: 0
Flags: HW
LayerCount: 2
Fore
SplineSet
74 142 m 0
 -75 142 -148 228 -148 335 c 0
 -148 440 -74 529 74 529 c 0
 223 529 297 439 297 333 c 0
 297 226 222 142 74 142 c 0
EndSplineSet
EndChar

StartChar: uniFB00
Encoding: 376 -1 381
Width: 1490
VWidth: 0
Flags: HW
LayerCount: 2
Fore
SplineSet
132 0 m 1
 132 808 l 1
 7 808 l 1
 7 1038 l 1
 132 1038 l 1
 132 1080 l 2
 132 1331 287 1447 556 1447 c 0
 630 1447 713 1439 770 1433 c 1
 770 1169 l 1
 689 1177 657 1178 630 1178 c 0
 572 1178 510 1140 510 1038 c 1
 867 1038 l 1
 867 1080 l 2
 867 1331 1022 1447 1291 1447 c 0
 1365 1447 1448 1439 1505 1433 c 1
 1505 1169 l 1
 1424 1177 1392 1178 1365 1178 c 0
 1307 1178 1245 1140 1245 1038 c 1
 1489 1038 l 1
 1489 808 l 1
 1254 808 l 1
 1254 0 l 1
 867 0 l 1
 867 808 l 1
 519 808 l 1
 519 0 l 1
 132 0 l 1
EndSplineSet
EndChar

StartChar: uniFB01
Encoding: 374 64257 382
Width: 1448
VWidth: 0
Flags: HW
LayerCount: 2
Fore
SplineSet
132 0 m 1
 132 808 l 1
 7 808 l 1
 7 1038 l 1
 132 1038 l 1
 132 1080 l 2
 132 1331 287 1447 556 1447 c 0
 630 1447 713 1439 770 1433 c 1
 770 1169 l 1
 689 1177 657 1178 630 1178 c 0
 572 1178 510 1140 510 1038 c 1
 1296 1038 l 1
 1296 0 l 1
 908 0 l 1
 908 808 l 1
 519 808 l 1
 519 0 l 1
 132 0 l 1
1101 1192 m 0
 952 1192 879 1278 879 1385 c 0
 879 1490 953 1579 1101 1579 c 0
 1250 1579 1324 1489 1324 1383 c 0
 1324 1276 1249 1192 1101 1192 c 0
EndSplineSet
EndChar

StartChar: uniFB02
Encoding: 375 64258 383
Width: 1439
VWidth: 0
Flags: HW
LayerCount: 2
Fore
SplineSet
1299 -5 m 2
 904 -5 879 155 879 352 c 2
 879 1166 l 1
 796 1173 656 1178 630 1178 c 0
 572 1178 510 1140 510 1038 c 1
 754 1038 l 1
 754 808 l 1
 519 808 l 1
 519 0 l 1
 132 0 l 1
 132 808 l 1
 7 808 l 1
 7 1038 l 1
 132 1038 l 1
 132 1080 l 2
 132 1331 287 1447 556 1447 c 0
 814 1447 1030 1416 1266 1395 c 1
 1266 377 l 2
 1266 313 1292 247 1387 247 c 1
 1387 -5 l 1
 1299 -5 l 2
EndSplineSet
EndChar

StartChar: uniFB03
Encoding: 381 -1 384
Width: 2203
VWidth: 0
Flags: HW
LayerCount: 2
Fore
SplineSet
887 0 m 1
 887 808 l 1
 519 808 l 1
 519 0 l 1
 132 0 l 1
 132 808 l 1
 7 808 l 1
 7 1038 l 1
 132 1038 l 1
 132 1080 l 2
 132 1331 287 1447 556 1447 c 0
 630 1447 713 1439 770 1433 c 1
 770 1169 l 1
 689 1177 657 1178 630 1178 c 0
 572 1178 510 1140 510 1038 c 1
 887 1038 l 1
 887 1080 l 2
 887 1331 1042 1447 1311 1447 c 0
 1385 1447 1468 1439 1525 1433 c 1
 1525 1169 l 1
 1444 1177 1412 1178 1385 1178 c 0
 1327 1178 1265 1140 1265 1038 c 1
 2051 1038 l 1
 2051 0 l 1
 1663 0 l 1
 1663 808 l 1
 1274 808 l 1
 1274 0 l 1
 887 0 l 1
1856 1192 m 0
 1707 1192 1634 1278 1634 1385 c 0
 1634 1490 1708 1579 1856 1579 c 0
 2005 1579 2079 1489 2079 1383 c 0
 2079 1276 2004 1192 1856 1192 c 0
EndSplineSet
EndChar

StartChar: uniFB04
Encoding: 382 -1 385
Width: 2161
VWidth: 0
Flags: HW
LayerCount: 2
Fore
SplineSet
2021 -5 m 2
 1626 -5 1601 155 1601 352 c 2
 1601 1166 l 1
 1518 1173 1378 1178 1352 1178 c 0
 1294 1178 1232 1140 1232 1038 c 1
 1476 1038 l 1
 1476 808 l 1
 1241 808 l 1
 1241 0 l 1
 854 0 l 1
 854 808 l 1
 519 808 l 1
 519 0 l 1
 132 0 l 1
 132 808 l 1
 7 808 l 1
 7 1038 l 1
 132 1038 l 1
 132 1080 l 2
 132 1331 287 1447 556 1447 c 0
 630 1447 713 1439 770 1433 c 1
 770 1169 l 1
 689 1177 657 1178 630 1178 c 0
 572 1178 510 1140 510 1038 c 1
 854 1038 l 1
 854 1080 l 2
 854 1331 1009 1447 1278 1447 c 0
 1536 1447 1752 1416 1988 1395 c 1
 1988 377 l 2
 1988 313 2014 247 2109 247 c 1
 2109 -5 l 1
 2021 -5 l 2
EndSplineSet
EndChar

StartChar: v
Encoding: 86 118 389
Width: 1159
VWidth: 0
Flags: HW
PickledData: "(dp1
S'com.typemytype.robofont.layerData'
p2
(dp3
s."
LayerCount: 2
Fore
SplineSet
374 0 m 1
 20 1038 l 1
 424 1038 l 1
 552 540 l 1
 583 398 l 1
 586 398 l 1
 618 541 l 1
 752 1038 l 1
 1139 1038 l 1
 780 0 l 1
 374 0 l 1
EndSplineSet
EndChar

StartChar: w
Encoding: 87 119 390
Width: 1806
VWidth: 0
Flags: HW
PickledData: "(dp1
S'com.typemytype.robofont.layerData'
p2
(dp3
s."
LayerCount: 2
Fore
SplineSet
347 0 m 1
 29 1038 l 1
 435 1038 l 1
 545 459 l 1
 559 384 l 1
 561 384 l 1
 584 462 l 1
 759 1038 l 1
 1069 1038 l 1
 1209 515 l 1
 1242 390 l 1
 1263 501 l 1
 1371 1038 l 1
 1777 1038 l 1
 1459 0 l 1
 1059 0 l 1
 903 650 l 1
 901 650 l 1
 741 0 l 1
 347 0 l 1
EndSplineSet
EndChar

StartChar: x
Encoding: 88 120 395
Width: 1250
VWidth: 0
Flags: HW
PickledData: "(dp1
S'com.typemytype.robofont.layerData'
p2
(dp3
s."
LayerCount: 2
Fore
SplineSet
35 0 m 1
 391 525 l 1
 49 1038 l 1
 471 1038 l 1
 547 900 l 1
 623 756 l 1
 701 896 l 1
 779 1038 l 1
 1201 1038 l 1
 861 533 l 1
 1215 0 l 1
 783 0 l 1
 707 148 l 1
 625 300 l 1
 541 145 l 1
 461 0 l 1
 35 0 l 1
EndSplineSet
EndChar

StartChar: y
Encoding: 89 121 396
Width: 1217
VWidth: 0
Flags: HW
PickledData: "(dp1
S'com.typemytype.robofont.layerData'
p2
(dp3
s."
LayerCount: 2
Fore
SplineSet
222 -393 m 5
 287 -260 346 -121 406 55 c 5
 36 1038 l 5
 450 1038 l 5
 621 479 l 5
 771 1038 l 5
 1175 1038 l 5
 775 -104 l 5
 726 -238 639 -393 638 -393 c 6
 222 -393 l 5
EndSplineSet
EndChar

StartChar: yen
Encoding: 100 165 400
Width: 1606
VWidth: 0
Flags: HW
LayerCount: 2
Fore
SplineSet
612 0 m 1
 612 409 l 1
 241 409 l 1
 241 648 l 1
 609 648 l 1
 538 763 l 1
 241 763 l 1
 241 1009 l 1
 401 1009 l 1
 101 1481 l 1
 551 1481 l 1
 817 972 l 5
 1070 1481 l 1
 1502 1481 l 1
 1222 1009 l 1
 1398 1009 l 1
 1398 763 l 1
 1082 763 l 1
 1017 648 l 1
 1398 648 l 1
 1398 409 l 1
 1017 409 l 1
 1017 0 l 1
 612 0 l 1
EndSplineSet
EndChar

StartChar: z
Encoding: 90 122 402
Width: 1089
VWidth: 0
Flags: HW
PickledData: "(dp1
S'com.typemytype.robofont.layerData'
p2
(dp3
s."
LayerCount: 2
Fore
SplineSet
127 0 m 1
 127 240 l 1
 532 761 l 1
 155 761 l 1
 155 1038 l 1
 984 1038 l 1
 984 795 l 1
 601 286 l 1
 989 286 l 1
 989 0 l 1
 127 0 l 1
EndSplineSet
EndChar

StartChar: zero
Encoding: 16 48 406
Width: 1341
VWidth: 0
Flags: HW
LayerCount: 2
Fore
SplineSet
669 265 m 0
 776 265 787 408 787 744 c 0
 787 1056 771 1172 669 1172 c 0
 570 1172 551 1054 551 744 c 0
 551 415 566 265 669 265 c 0
669 -23 m 0
 219 -23 99 336 99 801 c 0
 99 1213 258 1505 669 1505 c 0
 1123 1505 1242 1124 1242 683 c 0
 1242 242 1072 -23 669 -23 c 0
EndSplineSet
EndChar
